<?xml version="1.0" encoding="us-ascii" standalone="no"?><svg xmlns="http://www.w3.org/2000/svg" xmlns:xlink="http://www.w3.org/1999/xlink" contentStyleType="text/css" height="1318.75px" preserveAspectRatio="none" style="width:2241px;height:1318px;" version="1.1" viewBox="0 0 2241 1318" width="2241.25px" zoomAndPan="magnify"><defs><filter height="300%" id="f1nohlygyumolh" width="300%" x="-1" y="-1"><feGaussianBlur result="blurOut" stdDeviation="2.5"/><feColorMatrix in="blurOut" result="blurOut2" type="matrix" values="0 0 0 0 0 0 0 0 0 0 0 0 0 0 0 0 0 0 .4 0"/><feOffset dx="5.0" dy="5.0" in="blurOut2" result="blurOut3"/><feBlend in="SourceGraphic" in2="blurOut3" mode="normal"/></filter><linearGradient id="g1nohlygyumolh0" x1="50%" x2="50%" y1="0%" y2="100%"><stop offset="0%" stop-color="#4DABF5"/><stop offset="100%" stop-color="#2196F3"/></linearGradient><linearGradient id="g1nohlygyumolh1" x1="50%" x2="50%" y1="0%" y2="100%"><stop offset="0%" stop-color="#2196F3"/><stop offset="100%" stop-color="#1A78C2"/></linearGradient></defs><g><!--cluster Aggregation Tables--><g id="cluster_Aggregation Tables"><path d="M25,20 L277.5,20 A7.5,7.5 0 0 1 282.5,25 L291.25,81.2476 L2221.25,81.2476 A5,5 0 0 1 2226.25,86.2476 L2226.25,1298.75 A5,5 0 0 1 2221.25,1303.75 L25,1303.75 A5,5 0 0 1 20,1298.75 L20,25 A5,5 0 0 1 25,20 " fill="#1A1A1A" filter="url(#f1nohlygyumolh)" style="stroke:#505050;stroke-width:2.5;"/><line style="stroke:#505050;stroke-width:2.5;" x1="20" x2="291.25" y1="81.2476" y2="81.2476"/><text fill="#FFFFFF" font-family="Arial" font-size="25" font-weight="bold" lengthAdjust="spacing" textLength="230" x="37.5" y="58.4497">Aggregation Tables</text></g><!--class FactSalesByCategory--><g id="elem_FactSalesByCategory"><rect codeLine="17" fill="url(#g1nohlygyumolh0)" filter="url(#f1nohlygyumolh)" height="569.9756" id="FactSalesByCategory" rx="5" ry="5" style="stroke:#2196F3;stroke-width:1.25;" width="566.25" x="1180" y="713.75"/><rect fill="url(#g1nohlygyumolh1)" height="66.2476" rx="5" ry="5" style="stroke:url(#g1nohlygyumolh1);stroke-width:1.25;" width="566.25" x="1180" y="713.75"/><rect fill="url(#g1nohlygyumolh1)" height="5" style="stroke:url(#g1nohlygyumolh1);stroke-width:1.25;" width="566.25" x="1180" y="774.9976"/><rect codeLine="17" fill="none" height="569.9756" id="FactSalesByCategory" rx="5" ry="5" style="stroke:#2196F3;stroke-width:1.25;" width="566.25" x="1180" y="713.75"/><ellipse cx="1325" cy="746.8738" fill="none" rx="15" ry="15" style="stroke:#1A78C2;stroke-width:1.25;"/><path d="M1322.4414,748.2019 L1322.4414,751.8738 L1328.8086,751.8738 L1328.8086,750.5066 Q1328.8086,749.6082 1329.1602,749.2371 Q1329.5117,748.8464 1330.0781,748.8464 Q1330.625,748.8464 1330.9766,749.2371 Q1331.3281,749.6082 1331.3281,750.5066 L1331.3281,754.3738 L1319.5313,754.3738 Q1318.6328,754.3738 1318.2422,754.0222 Q1317.8711,753.6707 1317.8711,753.1238 Q1317.8711,752.5574 1318.2617,752.2253 Q1318.6523,751.8738 1319.5313,751.8738 L1319.9219,751.8738 L1319.9219,742.0886 L1319.5313,742.0886 Q1318.6328,742.0886 1318.2422,741.7371 Q1317.8711,741.3855 1317.8711,740.8191 Q1317.8711,740.2527 1318.2422,739.9207 Q1318.6328,739.5691 1319.5313,739.5691 L1330.7617,739.5691 L1330.7617,743.3777 Q1330.7617,744.2761 1330.4102,744.6667 Q1330.0781,745.0378 1329.5313,745.0378 Q1328.9648,745.0378 1328.6133,744.6667 Q1328.2617,744.2957 1328.2617,743.3777 L1328.2617,742.0886 L1322.4414,742.0886 L1322.4414,745.7019 L1324.6289,745.7019 Q1324.6289,744.7253 1324.8047,744.4324 Q1325.1953,743.8464 1325.8789,743.8464 Q1326.4453,743.8464 1326.7773,744.2371 Q1327.1289,744.6082 1327.1289,745.5066 L1327.1289,748.3972 Q1327.1289,749.2175 1326.9336,749.491 Q1326.543,750.0574 1325.8789,750.0574 Q1325.1953,750.0574 1324.8047,749.4714 Q1324.6289,749.1785 1324.6289,748.2019 L1322.4414,748.2019 Z " fill="#FFFFFF"/><text fill="#FFFFFF" font-family="Arial" font-size="25" lengthAdjust="spacing" textLength="240" x="1365" y="755.9497">FactSalesByCategory</text><line style="stroke:#2196F3;stroke-width:1.25;" x1="1181.25" x2="1745" y1="779.9976" y2="779.9976"/><ellipse cx="1193.75" cy="813.7463" fill="none" rx="3.75" ry="3.75" style="stroke:#1A78C2;stroke-width:1.25;"/><text fill="#FFFFFF" font-family="Arial" font-size="25" lengthAdjust="spacing" textLength="205" x="1218.75" y="820.9473">CategoryKey : INT</text><line style="stroke:#2196F3;stroke-width:1.25;" x1="1181.25" x2="1745" y1="843.7451" y2="843.7451"/><text fill="#FFFFFF" font-family="Arial" font-size="25" lengthAdjust="spacing" textLength="526.25" x="1200" y="884.6948">ProductCategoryNameEnglish : VARCHAR(100)</text><text fill="#FFFFFF" font-family="Arial" font-size="25" lengthAdjust="spacing" textLength="202.5" x="1200" y="938.4424">OrdersCount : INT</text><text fill="#FFFFFF" font-family="Arial" font-size="25" lengthAdjust="spacing" textLength="253.75" x="1200" y="992.1899">UniqueCustomers : INT</text><text fill="#FFFFFF" font-family="Arial" font-size="25" lengthAdjust="spacing" textLength="315" x="1200" y="1045.9375">TotalSales : DECIMAL(15,2)</text><text fill="#FFFFFF" font-family="Arial" font-size="25" lengthAdjust="spacing" textLength="345" x="1200" y="1099.6851">AvgItemPrice : DECIMAL(10,2)</text><text fill="#FFFFFF" font-family="Arial" font-size="25" lengthAdjust="spacing" textLength="285" x="1200" y="1153.4326">AvgDeliveryTime : FLOAT</text><text fill="#FFFFFF" font-family="Arial" font-size="25" lengthAdjust="spacing" textLength="228.75" x="1200" y="1207.1802">DelayedOrders : INT</text><text fill="#FFFFFF" font-family="Arial" font-size="25" lengthAdjust="spacing" textLength="287.5" x="1200" y="1260.9277">LastUpdated : DATETIME</text></g><!--class FactSalesByState--><g id="elem_FactSalesByState"><rect codeLine="30" fill="url(#g1nohlygyumolh0)" filter="url(#f1nohlygyumolh)" height="516.228" id="FactSalesByState" rx="5" ry="5" style="stroke:#2196F3;stroke-width:1.25;" width="385" x="1821.25" y="96.875"/><rect fill="url(#g1nohlygyumolh1)" height="66.2476" rx="5" ry="5" style="stroke:url(#g1nohlygyumolh1);stroke-width:1.25;" width="385" x="1821.25" y="96.875"/><rect fill="url(#g1nohlygyumolh1)" height="5" style="stroke:url(#g1nohlygyumolh1);stroke-width:1.25;" width="385" x="1821.25" y="158.1226"/><rect codeLine="30" fill="none" height="516.228" id="FactSalesByState" rx="5" ry="5" style="stroke:#2196F3;stroke-width:1.25;" width="385" x="1821.25" y="96.875"/><ellipse cx="1896.875" cy="129.9988" fill="none" rx="15" ry="15" style="stroke:#1A78C2;stroke-width:1.25;"/><path d="M1894.3164,131.3269 L1894.3164,134.9988 L1900.6836,134.9988 L1900.6836,133.6316 Q1900.6836,132.7332 1901.0352,132.3621 Q1901.3867,131.9714 1901.9531,131.9714 Q1902.5,131.9714 1902.8516,132.3621 Q1903.2031,132.7332 1903.2031,133.6316 L1903.2031,137.4988 L1891.4063,137.4988 Q1890.5078,137.4988 1890.1172,137.1472 Q1889.7461,136.7957 1889.7461,136.2488 Q1889.7461,135.6824 1890.1367,135.3503 Q1890.5273,134.9988 1891.4063,134.9988 L1891.7969,134.9988 L1891.7969,125.2136 L1891.4063,125.2136 Q1890.5078,125.2136 1890.1172,124.8621 Q1889.7461,124.5105 1889.7461,123.9441 Q1889.7461,123.3777 1890.1172,123.0457 Q1890.5078,122.6941 1891.4063,122.6941 L1902.6367,122.6941 L1902.6367,126.5027 Q1902.6367,127.4011 1902.2852,127.7917 Q1901.9531,128.1628 1901.4063,128.1628 Q1900.8398,128.1628 1900.4883,127.7917 Q1900.1367,127.4207 1900.1367,126.5027 L1900.1367,125.2136 L1894.3164,125.2136 L1894.3164,128.8269 L1896.5039,128.8269 Q1896.5039,127.8503 1896.6797,127.5574 Q1897.0703,126.9714 1897.7539,126.9714 Q1898.3203,126.9714 1898.6523,127.3621 Q1899.0039,127.7332 1899.0039,128.6316 L1899.0039,131.5222 Q1899.0039,132.3425 1898.8086,132.616 Q1898.418,133.1824 1897.7539,133.1824 Q1897.0703,133.1824 1896.6797,132.5964 Q1896.5039,132.3035 1896.5039,131.3269 L1894.3164,131.3269 Z " fill="#FFFFFF"/><text fill="#FFFFFF" font-family="Arial" font-size="25" lengthAdjust="spacing" textLength="197.5" x="1936.875" y="139.0747">FactSalesByState</text><line style="stroke:#2196F3;stroke-width:1.25;" x1="1822.5" x2="2205" y1="163.1226" y2="163.1226"/><ellipse cx="1835" cy="196.8713" fill="none" rx="3.75" ry="3.75" style="stroke:#1A78C2;stroke-width:1.25;"/><text fill="#FFFFFF" font-family="Arial" font-size="25" lengthAdjust="spacing" textLength="162.5" x="1860" y="204.0723">StateKey : INT</text><line style="stroke:#2196F3;stroke-width:1.25;" x1="1822.5" x2="2205" y1="226.8701" y2="226.8701"/><text fill="#FFFFFF" font-family="Arial" font-size="25" lengthAdjust="spacing" textLength="336.25" x="1841.25" y="267.8198">CustomerState : VARCHAR(2)</text><text fill="#FFFFFF" font-family="Arial" font-size="25" lengthAdjust="spacing" textLength="202.5" x="1841.25" y="321.5674">OrdersCount : INT</text><text fill="#FFFFFF" font-family="Arial" font-size="25" lengthAdjust="spacing" textLength="253.75" x="1841.25" y="375.3149">UniqueCustomers : INT</text><text fill="#FFFFFF" font-family="Arial" font-size="25" lengthAdjust="spacing" textLength="315" x="1841.25" y="429.0625">TotalSales : DECIMAL(15,2)</text><text fill="#FFFFFF" font-family="Arial" font-size="25" lengthAdjust="spacing" textLength="345" x="1841.25" y="482.8101">AvgItemPrice : DECIMAL(10,2)</text><text fill="#FFFFFF" font-family="Arial" font-size="25" lengthAdjust="spacing" textLength="285" x="1841.25" y="536.5576">AvgDeliveryTime : FLOAT</text><text fill="#FFFFFF" font-family="Arial" font-size="25" lengthAdjust="spacing" textLength="287.5" x="1841.25" y="590.3052">LastUpdated : DATETIME</text></g><!--class FactSellerPerformance--><g id="elem_FactSellerPerformance"><rect codeLine="42" fill="url(#g1nohlygyumolh0)" filter="url(#f1nohlygyumolh)" height="623.7231" id="FactSellerPerformance" rx="5" ry="5" style="stroke:#2196F3;stroke-width:1.25;" width="423.75" x="681.25" y="659.375"/><rect fill="url(#g1nohlygyumolh1)" height="66.2476" rx="5" ry="5" style="stroke:url(#g1nohlygyumolh1);stroke-width:1.25;" width="423.75" x="681.25" y="659.375"/><rect fill="url(#g1nohlygyumolh1)" height="5" style="stroke:url(#g1nohlygyumolh1);stroke-width:1.25;" width="423.75" x="681.25" y="720.6226"/><rect codeLine="42" fill="none" height="623.7231" id="FactSellerPerformance" rx="5" ry="5" style="stroke:#2196F3;stroke-width:1.25;" width="423.75" x="681.25" y="659.375"/><ellipse cx="748.75" cy="692.4988" fill="none" rx="15" ry="15" style="stroke:#1A78C2;stroke-width:1.25;"/><path d="M746.1914,693.8269 L746.1914,697.4988 L752.5586,697.4988 L752.5586,696.1316 Q752.5586,695.2332 752.9102,694.8621 Q753.2617,694.4714 753.8281,694.4714 Q754.375,694.4714 754.7266,694.8621 Q755.0781,695.2332 755.0781,696.1316 L755.0781,699.9988 L743.2813,699.9988 Q742.3828,699.9988 741.9922,699.6472 Q741.6211,699.2957 741.6211,698.7488 Q741.6211,698.1824 742.0117,697.8503 Q742.4023,697.4988 743.2813,697.4988 L743.6719,697.4988 L743.6719,687.7136 L743.2813,687.7136 Q742.3828,687.7136 741.9922,687.3621 Q741.6211,687.0105 741.6211,686.4441 Q741.6211,685.8777 741.9922,685.5457 Q742.3828,685.1941 743.2813,685.1941 L754.5117,685.1941 L754.5117,689.0027 Q754.5117,689.9011 754.1602,690.2917 Q753.8281,690.6628 753.2813,690.6628 Q752.7148,690.6628 752.3633,690.2917 Q752.0117,689.9207 752.0117,689.0027 L752.0117,687.7136 L746.1914,687.7136 L746.1914,691.3269 L748.3789,691.3269 Q748.3789,690.3503 748.5547,690.0574 Q748.9453,689.4714 749.6289,689.4714 Q750.1953,689.4714 750.5273,689.8621 Q750.8789,690.2332 750.8789,691.1316 L750.8789,694.0222 Q750.8789,694.8425 750.6836,695.116 Q750.293,695.6824 749.6289,695.6824 Q748.9453,695.6824 748.5547,695.0964 Q748.3789,694.8035 748.3789,693.8269 L746.1914,693.8269 Z " fill="#FFFFFF"/><text fill="#FFFFFF" font-family="Arial" font-size="25" lengthAdjust="spacing" textLength="252.5" x="788.75" y="701.5747">FactSellerPerformance</text><line style="stroke:#2196F3;stroke-width:1.25;" x1="682.5" x2="1103.75" y1="725.6226" y2="725.6226"/><ellipse cx="695" cy="759.3713" fill="none" rx="3.75" ry="3.75" style="stroke:#1A78C2;stroke-width:1.25;"/><text fill="#FFFFFF" font-family="Arial" font-size="25" lengthAdjust="spacing" textLength="307.5" x="720" y="766.5723">SellerPerformanceKey : INT</text><line style="stroke:#2196F3;stroke-width:1.25;" x1="682.5" x2="1103.75" y1="789.3701" y2="789.3701"/><text fill="#FFFFFF" font-family="Arial" font-size="25" lengthAdjust="spacing" textLength="286.25" x="701.25" y="830.3198">SellerID : VARCHAR(100)</text><text fill="#FFFFFF" font-family="Arial" font-size="25" lengthAdjust="spacing" textLength="292.5" x="701.25" y="884.0674">SellerState : VARCHAR(2)</text><text fill="#FFFFFF" font-family="Arial" font-size="25" lengthAdjust="spacing" textLength="202.5" x="701.25" y="937.8149">OrdersCount : INT</text><text fill="#FFFFFF" font-family="Arial" font-size="25" lengthAdjust="spacing" textLength="315" x="701.25" y="991.5625">TotalSales : DECIMAL(15,2)</text><text fill="#FFFFFF" font-family="Arial" font-size="25" lengthAdjust="spacing" textLength="383.75" x="701.25" y="1045.3101">AvgShippingCost : DECIMAL(10,2)</text><text fill="#FFFFFF" font-family="Arial" font-size="25" lengthAdjust="spacing" textLength="285" x="701.25" y="1099.0576">AvgDeliveryTime : FLOAT</text><text fill="#FFFFFF" font-family="Arial" font-size="25" lengthAdjust="spacing" textLength="228.75" x="701.25" y="1152.8052">DelayedOrders : INT</text><text fill="#FFFFFF" font-family="Arial" font-size="25" lengthAdjust="spacing" textLength="217.5" x="701.25" y="1206.5527">DelayRate : FLOAT</text><text fill="#FFFFFF" font-family="Arial" font-size="25" lengthAdjust="spacing" textLength="287.5" x="701.25" y="1260.3003">LastUpdated : DATETIME</text></g><!--class FactMonthlySales--><g id="elem_FactMonthlySales"><rect codeLine="56" fill="url(#g1nohlygyumolh0)" filter="url(#f1nohlygyumolh)" height="516.228" id="FactMonthlySales" rx="5" ry="5" style="stroke:#2196F3;stroke-width:1.25;" width="385" x="1270.625" y="96.875"/><rect fill="url(#g1nohlygyumolh1)" height="66.2476" rx="5" ry="5" style="stroke:url(#g1nohlygyumolh1);stroke-width:1.25;" width="385" x="1270.625" y="96.875"/><rect fill="url(#g1nohlygyumolh1)" height="5" style="stroke:url(#g1nohlygyumolh1);stroke-width:1.25;" width="385" x="1270.625" y="158.1226"/><rect codeLine="56" fill="none" height="516.228" id="FactMonthlySales" rx="5" ry="5" style="stroke:#2196F3;stroke-width:1.25;" width="385" x="1270.625" y="96.875"/><ellipse cx="1347.5" cy="129.9988" fill="none" rx="15" ry="15" style="stroke:#1A78C2;stroke-width:1.25;"/><path d="M1344.9414,131.3269 L1344.9414,134.9988 L1351.3086,134.9988 L1351.3086,133.6316 Q1351.3086,132.7332 1351.6602,132.3621 Q1352.0117,131.9714 1352.5781,131.9714 Q1353.125,131.9714 1353.4766,132.3621 Q1353.8281,132.7332 1353.8281,133.6316 L1353.8281,137.4988 L1342.0313,137.4988 Q1341.1328,137.4988 1340.7422,137.1472 Q1340.3711,136.7957 1340.3711,136.2488 Q1340.3711,135.6824 1340.7617,135.3503 Q1341.1523,134.9988 1342.0313,134.9988 L1342.4219,134.9988 L1342.4219,125.2136 L1342.0313,125.2136 Q1341.1328,125.2136 1340.7422,124.8621 Q1340.3711,124.5105 1340.3711,123.9441 Q1340.3711,123.3777 1340.7422,123.0457 Q1341.1328,122.6941 1342.0313,122.6941 L1353.2617,122.6941 L1353.2617,126.5027 Q1353.2617,127.4011 1352.9102,127.7917 Q1352.5781,128.1628 1352.0313,128.1628 Q1351.4648,128.1628 1351.1133,127.7917 Q1350.7617,127.4207 1350.7617,126.5027 L1350.7617,125.2136 L1344.9414,125.2136 L1344.9414,128.8269 L1347.1289,128.8269 Q1347.1289,127.8503 1347.3047,127.5574 Q1347.6953,126.9714 1348.3789,126.9714 Q1348.9453,126.9714 1349.2773,127.3621 Q1349.6289,127.7332 1349.6289,128.6316 L1349.6289,131.5222 Q1349.6289,132.3425 1349.4336,132.616 Q1349.043,133.1824 1348.3789,133.1824 Q1347.6953,133.1824 1347.3047,132.5964 Q1347.1289,132.3035 1347.1289,131.3269 L1344.9414,131.3269 Z " fill="#FFFFFF"/><text fill="#FFFFFF" font-family="Arial" font-size="25" lengthAdjust="spacing" textLength="195" x="1387.5" y="139.0747">FactMonthlySales</text><line style="stroke:#2196F3;stroke-width:1.25;" x1="1271.875" x2="1654.375" y1="163.1226" y2="163.1226"/><ellipse cx="1284.375" cy="196.8713" fill="none" rx="3.75" ry="3.75" style="stroke:#1A78C2;stroke-width:1.25;"/><text fill="#FFFFFF" font-family="Arial" font-size="25" lengthAdjust="spacing" textLength="188.75" x="1309.375" y="204.0723">MonthlyKey : INT</text><line style="stroke:#2196F3;stroke-width:1.25;" x1="1271.875" x2="1654.375" y1="226.8701" y2="226.8701"/><text fill="#FFFFFF" font-family="Arial" font-size="25" lengthAdjust="spacing" textLength="115" x="1290.625" y="267.8198">Year : INT</text><text fill="#FFFFFF" font-family="Arial" font-size="25" lengthAdjust="spacing" textLength="128.75" x="1290.625" y="321.5674">Month : INT</text><text fill="#FFFFFF" font-family="Arial" font-size="25" lengthAdjust="spacing" textLength="202.5" x="1290.625" y="375.3149">OrdersCount : INT</text><text fill="#FFFFFF" font-family="Arial" font-size="25" lengthAdjust="spacing" textLength="253.75" x="1290.625" y="429.0625">UniqueCustomers : INT</text><text fill="#FFFFFF" font-family="Arial" font-size="25" lengthAdjust="spacing" textLength="315" x="1290.625" y="482.8101">TotalSales : DECIMAL(15,2)</text><text fill="#FFFFFF" font-family="Arial" font-size="25" lengthAdjust="spacing" textLength="345" x="1290.625" y="536.5576">AvgItemPrice : DECIMAL(10,2)</text><text fill="#FFFFFF" font-family="Arial" font-size="25" lengthAdjust="spacing" textLength="287.5" x="1290.625" y="590.3052">LastUpdated : DATETIME</text></g><!--class FactCrossStateAnalysis--><g id="elem_FactCrossStateAnalysis"><rect codeLine="68" fill="url(#g1nohlygyumolh0)" filter="url(#f1nohlygyumolh)" height="516.228" id="FactCrossStateAnalysis" rx="5" ry="5" style="stroke:#2196F3;stroke-width:1.25;" width="566.25" x="40" y="96.875"/><rect fill="url(#g1nohlygyumolh1)" height="66.2476" rx="5" ry="5" style="stroke:url(#g1nohlygyumolh1);stroke-width:1.25;" width="566.25" x="40" y="96.875"/><rect fill="url(#g1nohlygyumolh1)" height="5" style="stroke:url(#g1nohlygyumolh1);stroke-width:1.25;" width="566.25" x="40" y="158.1226"/><rect codeLine="68" fill="none" height="516.228" id="FactCrossStateAnalysis" rx="5" ry="5" style="stroke:#2196F3;stroke-width:1.25;" width="566.25" x="40" y="96.875"/><ellipse cx="173.75" cy="129.9988" fill="none" rx="15" ry="15" style="stroke:#1A78C2;stroke-width:1.25;"/><path d="M171.1914,131.3269 L171.1914,134.9988 L177.5586,134.9988 L177.5586,133.6316 Q177.5586,132.7332 177.9102,132.3621 Q178.2617,131.9714 178.8281,131.9714 Q179.375,131.9714 179.7266,132.3621 Q180.0781,132.7332 180.0781,133.6316 L180.0781,137.4988 L168.2813,137.4988 Q167.3828,137.4988 166.9922,137.1472 Q166.6211,136.7957 166.6211,136.2488 Q166.6211,135.6824 167.0117,135.3503 Q167.4023,134.9988 168.2813,134.9988 L168.6719,134.9988 L168.6719,125.2136 L168.2813,125.2136 Q167.3828,125.2136 166.9922,124.8621 Q166.6211,124.5105 166.6211,123.9441 Q166.6211,123.3777 166.9922,123.0457 Q167.3828,122.6941 168.2813,122.6941 L179.5117,122.6941 L179.5117,126.5027 Q179.5117,127.4011 179.1602,127.7917 Q178.8281,128.1628 178.2813,128.1628 Q177.7148,128.1628 177.3633,127.7917 Q177.0117,127.4207 177.0117,126.5027 L177.0117,125.2136 L171.1914,125.2136 L171.1914,128.8269 L173.3789,128.8269 Q173.3789,127.8503 173.5547,127.5574 Q173.9453,126.9714 174.6289,126.9714 Q175.1953,126.9714 175.5273,127.3621 Q175.8789,127.7332 175.8789,128.6316 L175.8789,131.5222 Q175.8789,132.3425 175.6836,132.616 Q175.293,133.1824 174.6289,133.1824 Q173.9453,133.1824 173.5547,132.5964 Q173.3789,132.3035 173.3789,131.3269 L171.1914,131.3269 Z " fill="#FFFFFF"/><text fill="#FFFFFF" font-family="Arial" font-size="25" lengthAdjust="spacing" textLength="262.5" x="213.75" y="139.0747">FactCrossStateAnalysis</text><line style="stroke:#2196F3;stroke-width:1.25;" x1="41.25" x2="605" y1="163.1226" y2="163.1226"/><ellipse cx="53.75" cy="196.8713" fill="none" rx="3.75" ry="3.75" style="stroke:#1A78C2;stroke-width:1.25;"/><text fill="#FFFFFF" font-family="Arial" font-size="25" lengthAdjust="spacing" textLength="227.5" x="78.75" y="204.0723">CrossStateKey : INT</text><line style="stroke:#2196F3;stroke-width:1.25;" x1="41.25" x2="605" y1="226.8701" y2="226.8701"/><text fill="#FFFFFF" font-family="Arial" font-size="25" lengthAdjust="spacing" textLength="526.25" x="60" y="267.8198">ProductCategoryNameEnglish : VARCHAR(100)</text><text fill="#FFFFFF" font-family="Arial" font-size="25" lengthAdjust="spacing" textLength="205" x="60" y="321.5674">IsCrossState : BIT</text><text fill="#FFFFFF" font-family="Arial" font-size="25" lengthAdjust="spacing" textLength="202.5" x="60" y="375.3149">OrdersCount : INT</text><text fill="#FFFFFF" font-family="Arial" font-size="25" lengthAdjust="spacing" textLength="315" x="60" y="429.0625">TotalSales : DECIMAL(15,2)</text><text fill="#FFFFFF" font-family="Arial" font-size="25" lengthAdjust="spacing" textLength="285" x="60" y="482.8101">AvgDeliveryTime : FLOAT</text><text fill="#FFFFFF" font-family="Arial" font-size="25" lengthAdjust="spacing" textLength="217.5" x="60" y="536.5576">DelayRate : FLOAT</text><text fill="#FFFFFF" font-family="Arial" font-size="25" lengthAdjust="spacing" textLength="287.5" x="60" y="590.3052">LastUpdated : DATETIME</text></g><!--class FactSizeAnalysis--><g id="elem_FactSizeAnalysis"><rect codeLine="80" fill="url(#g1nohlygyumolh0)" filter="url(#f1nohlygyumolh)" height="462.4805" id="FactSizeAnalysis" rx="5" ry="5" style="stroke:#2196F3;stroke-width:1.25;" width="566.25" x="40" y="740"/><rect fill="url(#g1nohlygyumolh1)" height="66.2476" rx="5" ry="5" style="stroke:url(#g1nohlygyumolh1);stroke-width:1.25;" width="566.25" x="40" y="740"/><rect fill="url(#g1nohlygyumolh1)" height="5" style="stroke:url(#g1nohlygyumolh1);stroke-width:1.25;" width="566.25" x="40" y="801.2476"/><rect codeLine="80" fill="none" height="462.4805" id="FactSizeAnalysis" rx="5" ry="5" style="stroke:#2196F3;stroke-width:1.25;" width="566.25" x="40" y="740"/><ellipse cx="212.5" cy="773.1238" fill="none" rx="15" ry="15" style="stroke:#1A78C2;stroke-width:1.25;"/><path d="M209.9414,774.4519 L209.9414,778.1238 L216.3086,778.1238 L216.3086,776.7566 Q216.3086,775.8582 216.6602,775.4871 Q217.0117,775.0964 217.5781,775.0964 Q218.125,775.0964 218.4766,775.4871 Q218.8281,775.8582 218.8281,776.7566 L218.8281,780.6238 L207.0313,780.6238 Q206.1328,780.6238 205.7422,780.2722 Q205.3711,779.9207 205.3711,779.3738 Q205.3711,778.8074 205.7617,778.4753 Q206.1523,778.1238 207.0313,778.1238 L207.4219,778.1238 L207.4219,768.3386 L207.0313,768.3386 Q206.1328,768.3386 205.7422,767.9871 Q205.3711,767.6355 205.3711,767.0691 Q205.3711,766.5027 205.7422,766.1707 Q206.1328,765.8191 207.0313,765.8191 L218.2617,765.8191 L218.2617,769.6277 Q218.2617,770.5261 217.9102,770.9167 Q217.5781,771.2878 217.0313,771.2878 Q216.4648,771.2878 216.1133,770.9167 Q215.7617,770.5457 215.7617,769.6277 L215.7617,768.3386 L209.9414,768.3386 L209.9414,771.9519 L212.1289,771.9519 Q212.1289,770.9753 212.3047,770.6824 Q212.6953,770.0964 213.3789,770.0964 Q213.9453,770.0964 214.2773,770.4871 Q214.6289,770.8582 214.6289,771.7566 L214.6289,774.6472 Q214.6289,775.4675 214.4336,775.741 Q214.043,776.3074 213.3789,776.3074 Q212.6953,776.3074 212.3047,775.7214 Q212.1289,775.4285 212.1289,774.4519 L209.9414,774.4519 Z " fill="#FFFFFF"/><text fill="#FFFFFF" font-family="Arial" font-size="25" lengthAdjust="spacing" textLength="185" x="252.5" y="782.1997">FactSizeAnalysis</text><line style="stroke:#2196F3;stroke-width:1.25;" x1="41.25" x2="605" y1="806.2476" y2="806.2476"/><ellipse cx="53.75" cy="839.9963" fill="none" rx="3.75" ry="3.75" style="stroke:#1A78C2;stroke-width:1.25;"/><text fill="#FFFFFF" font-family="Arial" font-size="25" lengthAdjust="spacing" textLength="150" x="78.75" y="847.1973">SizeKey : INT</text><line style="stroke:#2196F3;stroke-width:1.25;" x1="41.25" x2="605" y1="869.9951" y2="869.9951"/><text fill="#FFFFFF" font-family="Arial" font-size="25" lengthAdjust="spacing" textLength="526.25" x="60" y="910.9448">ProductCategoryNameEnglish : VARCHAR(100)</text><text fill="#FFFFFF" font-family="Arial" font-size="25" lengthAdjust="spacing" textLength="332.5" x="60" y="964.6924">SizeCategory : VARCHAR(20)</text><text fill="#FFFFFF" font-family="Arial" font-size="25" lengthAdjust="spacing" textLength="202.5" x="60" y="1018.4399">OrdersCount : INT</text><text fill="#FFFFFF" font-family="Arial" font-size="25" lengthAdjust="spacing" textLength="315" x="60" y="1072.1875">TotalSales : DECIMAL(15,2)</text><text fill="#FFFFFF" font-family="Arial" font-size="25" lengthAdjust="spacing" textLength="383.75" x="60" y="1125.9351">AvgShippingCost : DECIMAL(10,2)</text><text fill="#FFFFFF" font-family="Arial" font-size="25" lengthAdjust="spacing" textLength="287.5" x="60" y="1179.6826">LastUpdated : DATETIME</text></g><!--class FactPaymentAnalysis--><g id="elem_FactPaymentAnalysis"><rect codeLine="91" fill="url(#g1nohlygyumolh0)" filter="url(#f1nohlygyumolh)" height="462.4805" id="FactPaymentAnalysis" rx="5" ry="5" style="stroke:#2196F3;stroke-width:1.25;" width="406.25" x="690" y="96.25"/><rect fill="url(#g1nohlygyumolh1)" height="66.2476" rx="5" ry="5" style="stroke:url(#g1nohlygyumolh1);stroke-width:1.25;" width="406.25" x="690" y="96.25"/><rect fill="url(#g1nohlygyumolh1)" height="5" style="stroke:url(#g1nohlygyumolh1);stroke-width:1.25;" width="406.25" x="690" y="157.4976"/><rect codeLine="91" fill="none" height="462.4805" id="FactPaymentAnalysis" rx="5" ry="5" style="stroke:#2196F3;stroke-width:1.25;" width="406.25" x="690" y="96.25"/><ellipse cx="757.5" cy="129.3738" fill="none" rx="15" ry="15" style="stroke:#1A78C2;stroke-width:1.25;"/><path d="M754.9414,130.7019 L754.9414,134.3738 L761.3086,134.3738 L761.3086,133.0066 Q761.3086,132.1082 761.6602,131.7371 Q762.0117,131.3464 762.5781,131.3464 Q763.125,131.3464 763.4766,131.7371 Q763.8281,132.1082 763.8281,133.0066 L763.8281,136.8738 L752.0313,136.8738 Q751.1328,136.8738 750.7422,136.5222 Q750.3711,136.1707 750.3711,135.6238 Q750.3711,135.0574 750.7617,134.7253 Q751.1523,134.3738 752.0313,134.3738 L752.4219,134.3738 L752.4219,124.5886 L752.0313,124.5886 Q751.1328,124.5886 750.7422,124.2371 Q750.3711,123.8855 750.3711,123.3191 Q750.3711,122.7527 750.7422,122.4207 Q751.1328,122.0691 752.0313,122.0691 L763.2617,122.0691 L763.2617,125.8777 Q763.2617,126.7761 762.9102,127.1667 Q762.5781,127.5378 762.0313,127.5378 Q761.4648,127.5378 761.1133,127.1667 Q760.7617,126.7957 760.7617,125.8777 L760.7617,124.5886 L754.9414,124.5886 L754.9414,128.2019 L757.1289,128.2019 Q757.1289,127.2253 757.3047,126.9324 Q757.6953,126.3464 758.3789,126.3464 Q758.9453,126.3464 759.2773,126.7371 Q759.6289,127.1082 759.6289,128.0066 L759.6289,130.8972 Q759.6289,131.7175 759.4336,131.991 Q759.043,132.5574 758.3789,132.5574 Q757.6953,132.5574 757.3047,131.9714 Q757.1289,131.6785 757.1289,130.7019 L754.9414,130.7019 Z " fill="#FFFFFF"/><text fill="#FFFFFF" font-family="Arial" font-size="25" lengthAdjust="spacing" textLength="235" x="797.5" y="138.4497">FactPaymentAnalysis</text><line style="stroke:#2196F3;stroke-width:1.25;" x1="691.25" x2="1095" y1="162.4976" y2="162.4976"/><ellipse cx="703.75" cy="196.2463" fill="none" rx="3.75" ry="3.75" style="stroke:#1A78C2;stroke-width:1.25;"/><text fill="#FFFFFF" font-family="Arial" font-size="25" lengthAdjust="spacing" textLength="200" x="728.75" y="203.4473">PaymentKey : INT</text><line style="stroke:#2196F3;stroke-width:1.25;" x1="691.25" x2="1095" y1="226.2451" y2="226.2451"/><text fill="#FFFFFF" font-family="Arial" font-size="25" lengthAdjust="spacing" textLength="336.25" x="710" y="267.1948">PaymentType : VARCHAR(50)</text><text fill="#FFFFFF" font-family="Arial" font-size="25" lengthAdjust="spacing" textLength="202.5" x="710" y="320.9424">OrdersCount : INT</text><text fill="#FFFFFF" font-family="Arial" font-size="25" lengthAdjust="spacing" textLength="315" x="710" y="374.6899">TotalSales : DECIMAL(15,2)</text><text fill="#FFFFFF" font-family="Arial" font-size="25" lengthAdjust="spacing" textLength="366.25" x="710" y="428.4375">AvgOrderValue : DECIMAL(10,2)</text><text fill="#FFFFFF" font-family="Arial" font-size="25" lengthAdjust="spacing" textLength="253.75" x="710" y="482.1851">UniqueCustomers : INT</text><text fill="#FFFFFF" font-family="Arial" font-size="25" lengthAdjust="spacing" textLength="287.5" x="710" y="535.9326">LastUpdated : DATETIME</text></g><!--link FactSizeAnalysis to FactSellerPerformance--><!--link FactSellerPerformance to FactSalesByCategory--><!--link FactCrossStateAnalysis to FactPaymentAnalysis--><!--link FactPaymentAnalysis to FactMonthlySales--><!--link FactMonthlySales to FactSalesByState--><!--SRC=[pPPRRzCm5CVVyoaEvM60A6ed3I4UaBAiOnMxL6is2I4UlFeqiUR4mNPNCiHtvzZf9KkpiR61KATL-PzBZd-sJyypcsA6a36BMh10ujI2LQ15abhWGkF42fK7mHPybEg2IPYgt88HrmW6hHLvOW9pAVA2QPO1nocRIRjFFcFdijrhDnupUcT8BvGkSpGpLcLWR2cHyciesEII9LZFl93WHm3WCaHAakCy5HP9sILhejKivvN-l1-wZxCepL4lr9sU-mG_Ws2PhXCcYSQ4kKL2p2uacev_1_rXReKjeRFF9dRCoB9RHeGfKRhi03FGeljGW5Um53vX2UzXU1nxlTlrNoEj-6nYbpuEnY1Ff30f-Pw7fz51UFgYt-kzzDudRW4ceiNPMggpN7oROKMEp3LBh2oJlYuIzmRHy2WyVD7VURrTfGklag75RAJ51EiElPh37afnXRgCHUPyzWzFmYet6LY9l2gfziv3PknPmMb1tEKCuq4yF1gGYL2tWXnRycrIzE8AeNzgvRTSTUM_HhRz_m5x01YK4lK8DLs0ZEMJ6fscPOseQMd5LNaDzzeELsLx4CZVungdeYYeCqJAs2SxObu_hUhy4xv7r3HIMVh2LsZhuehgGcnb-HcPhgdUjVRyhu_U_PSVQMMCt-SmPx8qOWrXqxHkOolJ4pIoeLcd8_lkC7xKARlx13tYfBXVhWr8TN5z_qXy0Z0kpUeNf7OBUt_v6juVoOYL6JrlK6deAp0BlPrDPOlBejvoTXwvM1ztpkIi_QBSVWNlXa33ISf43ZGbLK04bP0gBQxfvZCfIvWPGWofu1npa2A_D6v2QPwOxfVAusltGtjFNmPjzFgDo9iJHx08RBd4pSZ6PYq2crlOZAgto4N8ZQvvIts-53TfRK78kN3p5GsFXkOkX-i2xHo9rmefZPo5nYjwXebMSqvE53aNr5qTUibqWXeiVhStPaBk7A5Vdp9pnT5W0U_gecQqBoI-xRc23WJ7AYrjb_j71HZbb1AuohSiiA9mZNwnyLFXQkU29PGhI5sqYtIfnXDQhdTAC4VjJv78QB8CZBVqtsm7lm00]--></g></svg>