<?xml version="1.0" encoding="us-ascii" standalone="no"?><svg xmlns="http://www.w3.org/2000/svg" xmlns:xlink="http://www.w3.org/1999/xlink" contentStyleType="text/css" height="2437.5px" preserveAspectRatio="none" style="width:3046px;height:2437px;" version="1.1" viewBox="0 0 3046 2437" width="3046.25px" zoomAndPan="magnify"><defs><filter height="300%" id="f1jkdz3iyukl4" width="300%" x="-1" y="-1"><feGaussianBlur result="blurOut" stdDeviation="2.5"/><feColorMatrix in="blurOut" result="blurOut2" type="matrix" values="0 0 0 0 0 0 0 0 0 0 0 0 0 0 0 0 0 0 .4 0"/><feOffset dx="5.0" dy="5.0" in="blurOut2" result="blurOut3"/><feBlend in="SourceGraphic" in2="blurOut3" mode="normal"/></filter><linearGradient id="g1jkdz3iyukl40" x1="50%" x2="50%" y1="0%" y2="100%"><stop offset="0%" stop-color="#4DABF5"/><stop offset="100%" stop-color="#2196F3"/></linearGradient><linearGradient id="g1jkdz3iyukl41" x1="50%" x2="50%" y1="0%" y2="100%"><stop offset="0%" stop-color="#2196F3"/><stop offset="100%" stop-color="#1A78C2"/></linearGradient></defs><g><!--cluster Dimension Tables--><g id="cluster_Dimension Tables"><path d="M25,20 L257.5,20 A7.5,7.5 0 0 1 262.5,25 L271.25,81.2476 L2251.25,81.2476 A5,5 0 0 1 2256.25,86.2476 L2256.25,1675 A5,5 0 0 1 2251.25,1680 L25,1680 A5,5 0 0 1 20,1675 L20,25 A5,5 0 0 1 25,20 " fill="#1A1A1A" filter="url(#f1jkdz3iyukl4)" style="stroke:#505050;stroke-width:2.5;"/><line style="stroke:#505050;stroke-width:2.5;" x1="20" x2="271.25" y1="81.2476" y2="81.2476"/><text fill="#FFFFFF" font-family="Arial" font-size="25" font-weight="bold" lengthAdjust="spacing" textLength="210" x="37.5" y="58.4497">Dimension Tables</text></g><!--cluster Fact Tables--><g id="cluster_Fact Tables"><path d="M2441.25,386.25 L2601.25,386.25 A7.5,7.5 0 0 1 2606.25,391.25 L2615,447.4976 L3026.25,447.4976 A5,5 0 0 1 3031.25,452.4976 L3031.25,2417.5 A5,5 0 0 1 3026.25,2422.5 L2441.25,2422.5 A5,5 0 0 1 2436.25,2417.5 L2436.25,391.25 A5,5 0 0 1 2441.25,386.25 " fill="#1A1A1A" filter="url(#f1jkdz3iyukl4)" style="stroke:#505050;stroke-width:2.5;"/><line style="stroke:#505050;stroke-width:2.5;" x1="2436.25" x2="2615" y1="447.4976" y2="447.4976"/><text fill="#FFFFFF" font-family="Arial" font-size="25" font-weight="bold" lengthAdjust="spacing" textLength="137.5" x="2453.75" y="424.6997">Fact Tables</text></g><!--class DimCustomer--><g id="elem_DimCustomer"><rect codeLine="19" fill="url(#g1jkdz3iyukl40)" filter="url(#f1jkdz3iyukl4)" height="569.9756" id="DimCustomer" rx="5" ry="5" style="stroke:#2196F3;stroke-width:1.25;" width="443.75" x="575" y="96.25"/><rect fill="url(#g1jkdz3iyukl41)" height="66.2476" rx="5" ry="5" style="stroke:url(#g1jkdz3iyukl41);stroke-width:1.25;" width="443.75" x="575" y="96.25"/><rect fill="url(#g1jkdz3iyukl41)" height="5" style="stroke:url(#g1jkdz3iyukl41);stroke-width:1.25;" width="443.75" x="575" y="157.4976"/><rect codeLine="19" fill="none" height="569.9756" id="DimCustomer" rx="5" ry="5" style="stroke:#2196F3;stroke-width:1.25;" width="443.75" x="575" y="96.25"/><ellipse cx="704.375" cy="129.3738" fill="none" rx="15" ry="15" style="stroke:#1A78C2;stroke-width:1.25;"/><path d="M701.8164,130.7019 L701.8164,134.3738 L708.1836,134.3738 L708.1836,133.0066 Q708.1836,132.1082 708.5352,131.7371 Q708.8867,131.3464 709.4531,131.3464 Q710,131.3464 710.3516,131.7371 Q710.7031,132.1082 710.7031,133.0066 L710.7031,136.8738 L698.9063,136.8738 Q698.0078,136.8738 697.6172,136.5222 Q697.2461,136.1707 697.2461,135.6238 Q697.2461,135.0574 697.6367,134.7253 Q698.0273,134.3738 698.9063,134.3738 L699.2969,134.3738 L699.2969,124.5886 L698.9063,124.5886 Q698.0078,124.5886 697.6172,124.2371 Q697.2461,123.8855 697.2461,123.3191 Q697.2461,122.7527 697.6172,122.4207 Q698.0078,122.0691 698.9063,122.0691 L710.1367,122.0691 L710.1367,125.8777 Q710.1367,126.7761 709.7852,127.1667 Q709.4531,127.5378 708.9063,127.5378 Q708.3398,127.5378 707.9883,127.1667 Q707.6367,126.7957 707.6367,125.8777 L707.6367,124.5886 L701.8164,124.5886 L701.8164,128.2019 L704.0039,128.2019 Q704.0039,127.2253 704.1797,126.9324 Q704.5703,126.3464 705.2539,126.3464 Q705.8203,126.3464 706.1523,126.7371 Q706.5039,127.1082 706.5039,128.0066 L706.5039,130.8972 Q706.5039,131.7175 706.3086,131.991 Q705.918,132.5574 705.2539,132.5574 Q704.5703,132.5574 704.1797,131.9714 Q704.0039,131.6785 704.0039,130.7019 L701.8164,130.7019 Z " fill="#FFFFFF"/><text fill="#FFFFFF" font-family="Arial" font-size="25" lengthAdjust="spacing" textLength="148.75" x="744.375" y="138.4497">DimCustomer</text><line style="stroke:#2196F3;stroke-width:1.25;" x1="576.25" x2="1017.5" y1="162.4976" y2="162.4976"/><ellipse cx="588.75" cy="196.2463" fill="none" rx="3.75" ry="3.75" style="stroke:#1A78C2;stroke-width:1.25;"/><text fill="#FFFFFF" font-family="Arial" font-size="25" lengthAdjust="spacing" textLength="210" x="613.75" y="203.4473">CustomerKey : INT</text><line style="stroke:#2196F3;stroke-width:1.25;" x1="576.25" x2="1017.5" y1="226.2451" y2="226.2451"/><text fill="#FFFFFF" font-family="Arial" font-size="25" lengthAdjust="spacing" textLength="330" x="595" y="267.1948">CustomerID : VARCHAR(100)</text><text fill="#FFFFFF" font-family="Arial" font-size="25" lengthAdjust="spacing" textLength="403.75" x="595" y="320.9424">CustomerUniqueID : VARCHAR(100)</text><text fill="#FFFFFF" font-family="Arial" font-size="25" lengthAdjust="spacing" textLength="322.5" x="595" y="374.6899">CustomerZipCodePrefix : INT</text><text fill="#FFFFFF" font-family="Arial" font-size="25" lengthAdjust="spacing" textLength="347.5" x="595" y="428.4375">CustomerCity : VARCHAR(100)</text><text fill="#FFFFFF" font-family="Arial" font-size="25" lengthAdjust="spacing" textLength="336.25" x="595" y="482.1851">CustomerState : VARCHAR(2)</text><text fill="#FFFFFF" font-family="Arial" font-size="25" lengthAdjust="spacing" textLength="345" x="595" y="535.9326">RowEffectiveDate : DATETIME</text><text fill="#FFFFFF" font-family="Arial" font-size="25" lengthAdjust="spacing" textLength="357.5" x="595" y="589.6802">RowExpirationDate : DATETIME</text><text fill="#FFFFFF" font-family="Arial" font-size="25" lengthAdjust="spacing" textLength="190" x="595" y="643.4277">CurrentFlag : BIT</text></g><!--class DimProduct--><g id="elem_DimProduct"><rect codeLine="32" fill="url(#g1jkdz3iyukl40)" filter="url(#f1jkdz3iyukl4)" height="784.9658" id="DimProduct" rx="5" ry="5" style="stroke:#2196F3;stroke-width:1.25;" width="566.25" x="513.75" y="766.25"/><rect fill="url(#g1jkdz3iyukl41)" height="66.2476" rx="5" ry="5" style="stroke:url(#g1jkdz3iyukl41);stroke-width:1.25;" width="566.25" x="513.75" y="766.25"/><rect fill="url(#g1jkdz3iyukl41)" height="5" style="stroke:url(#g1jkdz3iyukl41);stroke-width:1.25;" width="566.25" x="513.75" y="827.4976"/><rect codeLine="32" fill="none" height="784.9658" id="DimProduct" rx="5" ry="5" style="stroke:#2196F3;stroke-width:1.25;" width="566.25" x="513.75" y="766.25"/><ellipse cx="715" cy="799.3738" fill="none" rx="15" ry="15" style="stroke:#1A78C2;stroke-width:1.25;"/><path d="M712.4414,800.7019 L712.4414,804.3738 L718.8086,804.3738 L718.8086,803.0066 Q718.8086,802.1082 719.1602,801.7371 Q719.5117,801.3464 720.0781,801.3464 Q720.625,801.3464 720.9766,801.7371 Q721.3281,802.1082 721.3281,803.0066 L721.3281,806.8738 L709.5313,806.8738 Q708.6328,806.8738 708.2422,806.5222 Q707.8711,806.1707 707.8711,805.6238 Q707.8711,805.0574 708.2617,804.7253 Q708.6523,804.3738 709.5313,804.3738 L709.9219,804.3738 L709.9219,794.5886 L709.5313,794.5886 Q708.6328,794.5886 708.2422,794.2371 Q707.8711,793.8855 707.8711,793.3191 Q707.8711,792.7527 708.2422,792.4207 Q708.6328,792.0691 709.5313,792.0691 L720.7617,792.0691 L720.7617,795.8777 Q720.7617,796.7761 720.4102,797.1667 Q720.0781,797.5378 719.5313,797.5378 Q718.9648,797.5378 718.6133,797.1667 Q718.2617,796.7957 718.2617,795.8777 L718.2617,794.5886 L712.4414,794.5886 L712.4414,798.2019 L714.6289,798.2019 Q714.6289,797.2253 714.8047,796.9324 Q715.1953,796.3464 715.8789,796.3464 Q716.4453,796.3464 716.7773,796.7371 Q717.1289,797.1082 717.1289,798.0066 L717.1289,800.8972 Q717.1289,801.7175 716.9336,801.991 Q716.543,802.5574 715.8789,802.5574 Q715.1953,802.5574 714.8047,801.9714 Q714.6289,801.6785 714.6289,800.7019 L712.4414,800.7019 Z " fill="#FFFFFF"/><text fill="#FFFFFF" font-family="Arial" font-size="25" lengthAdjust="spacing" textLength="127.5" x="755" y="808.4497">DimProduct</text><line style="stroke:#2196F3;stroke-width:1.25;" x1="515" x2="1078.75" y1="832.4976" y2="832.4976"/><ellipse cx="527.5" cy="866.2463" fill="none" rx="3.75" ry="3.75" style="stroke:#1A78C2;stroke-width:1.25;"/><text fill="#FFFFFF" font-family="Arial" font-size="25" lengthAdjust="spacing" textLength="188.75" x="552.5" y="873.4473">ProductKey : INT</text><line style="stroke:#2196F3;stroke-width:1.25;" x1="515" x2="1078.75" y1="896.2451" y2="896.2451"/><text fill="#FFFFFF" font-family="Arial" font-size="25" lengthAdjust="spacing" textLength="308.75" x="533.75" y="937.1948">ProductID : VARCHAR(100)</text><text fill="#FFFFFF" font-family="Arial" font-size="25" lengthAdjust="spacing" textLength="448.75" x="533.75" y="990.9424">ProductCategoryName : VARCHAR(100)</text><text fill="#FFFFFF" font-family="Arial" font-size="25" lengthAdjust="spacing" textLength="526.25" x="533.75" y="1044.6899">ProductCategoryNameEnglish : VARCHAR(100)</text><text fill="#FFFFFF" font-family="Arial" font-size="25" lengthAdjust="spacing" textLength="283.75" x="533.75" y="1098.4375">ProductWeightG : FLOAT</text><text fill="#FFFFFF" font-family="Arial" font-size="25" lengthAdjust="spacing" textLength="298.75" x="533.75" y="1152.1851">ProductLengthCm : FLOAT</text><text fill="#FFFFFF" font-family="Arial" font-size="25" lengthAdjust="spacing" textLength="293.75" x="533.75" y="1205.9326">ProductHeightCm : FLOAT</text><text fill="#FFFFFF" font-family="Arial" font-size="25" lengthAdjust="spacing" textLength="287.5" x="533.75" y="1259.6802">ProductWidthCm : FLOAT</text><text fill="#FFFFFF" font-family="Arial" font-size="25" lengthAdjust="spacing" textLength="320" x="533.75" y="1313.4277">ProductVolumeCm3 : FLOAT</text><text fill="#FFFFFF" font-family="Arial" font-size="25" lengthAdjust="spacing" textLength="332.5" x="533.75" y="1367.1753">SizeCategory : VARCHAR(20)</text><text fill="#FFFFFF" font-family="Arial" font-size="25" lengthAdjust="spacing" textLength="345" x="533.75" y="1420.9229">RowEffectiveDate : DATETIME</text><text fill="#FFFFFF" font-family="Arial" font-size="25" lengthAdjust="spacing" textLength="357.5" x="533.75" y="1474.6704">RowExpirationDate : DATETIME</text><text fill="#FFFFFF" font-family="Arial" font-size="25" lengthAdjust="spacing" textLength="190" x="533.75" y="1528.418">CurrentFlag : BIT</text></g><!--class DimSeller--><g id="elem_DimSeller"><rect codeLine="49" fill="url(#g1jkdz3iyukl40)" filter="url(#f1jkdz3iyukl4)" height="516.228" id="DimSeller" rx="5" ry="5" style="stroke:#2196F3;stroke-width:1.25;" width="397.5" x="40" y="96.875"/><rect fill="url(#g1jkdz3iyukl41)" height="66.2476" rx="5" ry="5" style="stroke:url(#g1jkdz3iyukl41);stroke-width:1.25;" width="397.5" x="40" y="96.875"/><rect fill="url(#g1jkdz3iyukl41)" height="5" style="stroke:url(#g1jkdz3iyukl41);stroke-width:1.25;" width="397.5" x="40" y="158.1226"/><rect codeLine="49" fill="none" height="516.228" id="DimSeller" rx="5" ry="5" style="stroke:#2196F3;stroke-width:1.25;" width="397.5" x="40" y="96.875"/><ellipse cx="168.125" cy="129.9988" fill="none" rx="15" ry="15" style="stroke:#1A78C2;stroke-width:1.25;"/><path d="M165.5664,131.3269 L165.5664,134.9988 L171.9336,134.9988 L171.9336,133.6316 Q171.9336,132.7332 172.2852,132.3621 Q172.6367,131.9714 173.2031,131.9714 Q173.75,131.9714 174.1016,132.3621 Q174.4531,132.7332 174.4531,133.6316 L174.4531,137.4988 L162.6563,137.4988 Q161.7578,137.4988 161.3672,137.1472 Q160.9961,136.7957 160.9961,136.2488 Q160.9961,135.6824 161.3867,135.3503 Q161.7773,134.9988 162.6563,134.9988 L163.0469,134.9988 L163.0469,125.2136 L162.6563,125.2136 Q161.7578,125.2136 161.3672,124.8621 Q160.9961,124.5105 160.9961,123.9441 Q160.9961,123.3777 161.3672,123.0457 Q161.7578,122.6941 162.6563,122.6941 L173.8867,122.6941 L173.8867,126.5027 Q173.8867,127.4011 173.5352,127.7917 Q173.2031,128.1628 172.6563,128.1628 Q172.0898,128.1628 171.7383,127.7917 Q171.3867,127.4207 171.3867,126.5027 L171.3867,125.2136 L165.5664,125.2136 L165.5664,128.8269 L167.7539,128.8269 Q167.7539,127.8503 167.9297,127.5574 Q168.3203,126.9714 169.0039,126.9714 Q169.5703,126.9714 169.9023,127.3621 Q170.2539,127.7332 170.2539,128.6316 L170.2539,131.5222 Q170.2539,132.3425 170.0586,132.616 Q169.668,133.1824 169.0039,133.1824 Q168.3203,133.1824 167.9297,132.5964 Q167.7539,132.3035 167.7539,131.3269 L165.5664,131.3269 Z " fill="#FFFFFF"/><text fill="#FFFFFF" font-family="Arial" font-size="25" lengthAdjust="spacing" textLength="105" x="208.125" y="139.0747">DimSeller</text><line style="stroke:#2196F3;stroke-width:1.25;" x1="41.25" x2="436.25" y1="163.1226" y2="163.1226"/><ellipse cx="53.75" cy="196.8713" fill="none" rx="3.75" ry="3.75" style="stroke:#1A78C2;stroke-width:1.25;"/><text fill="#FFFFFF" font-family="Arial" font-size="25" lengthAdjust="spacing" textLength="166.25" x="78.75" y="204.0723">SellerKey : INT</text><line style="stroke:#2196F3;stroke-width:1.25;" x1="41.25" x2="436.25" y1="226.8701" y2="226.8701"/><text fill="#FFFFFF" font-family="Arial" font-size="25" lengthAdjust="spacing" textLength="286.25" x="60" y="267.8198">SellerID : VARCHAR(100)</text><text fill="#FFFFFF" font-family="Arial" font-size="25" lengthAdjust="spacing" textLength="278.75" x="60" y="321.5674">SellerZipCodePrefix : INT</text><text fill="#FFFFFF" font-family="Arial" font-size="25" lengthAdjust="spacing" textLength="303.75" x="60" y="375.3149">SellerCity : VARCHAR(100)</text><text fill="#FFFFFF" font-family="Arial" font-size="25" lengthAdjust="spacing" textLength="292.5" x="60" y="429.0625">SellerState : VARCHAR(2)</text><text fill="#FFFFFF" font-family="Arial" font-size="25" lengthAdjust="spacing" textLength="345" x="60" y="482.8101">RowEffectiveDate : DATETIME</text><text fill="#FFFFFF" font-family="Arial" font-size="25" lengthAdjust="spacing" textLength="357.5" x="60" y="536.5576">RowExpirationDate : DATETIME</text><text fill="#FFFFFF" font-family="Arial" font-size="25" lengthAdjust="spacing" textLength="190" x="60" y="590.3052">CurrentFlag : BIT</text></g><!--class DimDate--><g id="elem_DimDate"><rect codeLine="61" fill="url(#g1jkdz3iyukl40)" filter="url(#f1jkdz3iyukl4)" height="946.2085" id="DimDate" rx="5" ry="5" style="stroke:#2196F3;stroke-width:1.25;" width="356.25" x="60.625" y="713.125"/><rect fill="url(#g1jkdz3iyukl41)" height="66.2476" rx="5" ry="5" style="stroke:url(#g1jkdz3iyukl41);stroke-width:1.25;" width="356.25" x="60.625" y="713.125"/><rect fill="url(#g1jkdz3iyukl41)" height="5" style="stroke:url(#g1jkdz3iyukl41);stroke-width:1.25;" width="356.25" x="60.625" y="774.3726"/><rect codeLine="61" fill="none" height="946.2085" id="DimDate" rx="5" ry="5" style="stroke:#2196F3;stroke-width:1.25;" width="356.25" x="60.625" y="713.125"/><ellipse cx="173.125" cy="746.2488" fill="none" rx="15" ry="15" style="stroke:#1A78C2;stroke-width:1.25;"/><path d="M170.5664,747.5769 L170.5664,751.2488 L176.9336,751.2488 L176.9336,749.8816 Q176.9336,748.9832 177.2852,748.6121 Q177.6367,748.2214 178.2031,748.2214 Q178.75,748.2214 179.1016,748.6121 Q179.4531,748.9832 179.4531,749.8816 L179.4531,753.7488 L167.6563,753.7488 Q166.7578,753.7488 166.3672,753.3972 Q165.9961,753.0457 165.9961,752.4988 Q165.9961,751.9324 166.3867,751.6003 Q166.7773,751.2488 167.6563,751.2488 L168.0469,751.2488 L168.0469,741.4636 L167.6563,741.4636 Q166.7578,741.4636 166.3672,741.1121 Q165.9961,740.7605 165.9961,740.1941 Q165.9961,739.6277 166.3672,739.2957 Q166.7578,738.9441 167.6563,738.9441 L178.8867,738.9441 L178.8867,742.7527 Q178.8867,743.6511 178.5352,744.0417 Q178.2031,744.4128 177.6563,744.4128 Q177.0898,744.4128 176.7383,744.0417 Q176.3867,743.6707 176.3867,742.7527 L176.3867,741.4636 L170.5664,741.4636 L170.5664,745.0769 L172.7539,745.0769 Q172.7539,744.1003 172.9297,743.8074 Q173.3203,743.2214 174.0039,743.2214 Q174.5703,743.2214 174.9023,743.6121 Q175.2539,743.9832 175.2539,744.8816 L175.2539,747.7722 Q175.2539,748.5925 175.0586,748.866 Q174.668,749.4324 174.0039,749.4324 Q173.3203,749.4324 172.9297,748.8464 Q172.7539,748.5535 172.7539,747.5769 L170.5664,747.5769 Z " fill="#FFFFFF"/><text fill="#FFFFFF" font-family="Arial" font-size="25" lengthAdjust="spacing" textLength="95" x="213.125" y="755.3247">DimDate</text><line style="stroke:#2196F3;stroke-width:1.25;" x1="61.875" x2="415.625" y1="779.3726" y2="779.3726"/><ellipse cx="74.375" cy="813.1213" fill="none" rx="3.75" ry="3.75" style="stroke:#1A78C2;stroke-width:1.25;"/><text fill="#FFFFFF" font-family="Arial" font-size="25" lengthAdjust="spacing" textLength="156.25" x="99.375" y="820.3223">DateKey : INT</text><line style="stroke:#2196F3;stroke-width:1.25;" x1="61.875" x2="415.625" y1="843.1201" y2="843.1201"/><text fill="#FFFFFF" font-family="Arial" font-size="25" lengthAdjust="spacing" textLength="262.5" x="80.625" y="884.0698">DateID : VARCHAR(10)</text><text fill="#FFFFFF" font-family="Arial" font-size="25" lengthAdjust="spacing" textLength="140" x="80.625" y="937.8174">Date : DATE</text><text fill="#FFFFFF" font-family="Arial" font-size="25" lengthAdjust="spacing" textLength="115" x="80.625" y="991.5649">Year : INT</text><text fill="#FFFFFF" font-family="Arial" font-size="25" lengthAdjust="spacing" textLength="128.75" x="80.625" y="1045.3125">Month : INT</text><text fill="#FFFFFF" font-family="Arial" font-size="25" lengthAdjust="spacing" textLength="105" x="80.625" y="1099.0601">Day : INT</text><text fill="#FFFFFF" font-family="Arial" font-size="25" lengthAdjust="spacing" textLength="146.25" x="80.625" y="1152.8076">Quarter : INT</text><text fill="#FFFFFF" font-family="Arial" font-size="25" lengthAdjust="spacing" textLength="206.25" x="80.625" y="1206.5552">WeekOfYear : INT</text><text fill="#FFFFFF" font-family="Arial" font-size="25" lengthAdjust="spacing" textLength="196.25" x="80.625" y="1260.3027">DayOfWeek : INT</text><text fill="#FFFFFF" font-family="Arial" font-size="25" lengthAdjust="spacing" textLength="185" x="80.625" y="1314.0503">IsWeekend : BIT</text><text fill="#FFFFFF" font-family="Arial" font-size="25" lengthAdjust="spacing" textLength="316.25" x="80.625" y="1367.7979">MonthName : VARCHAR(10)</text><text fill="#FFFFFF" font-family="Arial" font-size="25" lengthAdjust="spacing" textLength="292.5" x="80.625" y="1421.5454">DayName : VARCHAR(10)</text><text fill="#FFFFFF" font-family="Arial" font-size="25" lengthAdjust="spacing" textLength="178.75" x="80.625" y="1475.293">FiscalYear : INT</text><text fill="#FFFFFF" font-family="Arial" font-size="25" lengthAdjust="spacing" textLength="210" x="80.625" y="1529.0405">FiscalQuarter : INT</text><text fill="#FFFFFF" font-family="Arial" font-size="25" lengthAdjust="spacing" textLength="265" x="80.625" y="1582.7881">Holiday : VARCHAR(50)</text><text fill="#FFFFFF" font-family="Arial" font-size="25" lengthAdjust="spacing" textLength="161.25" x="80.625" y="1636.5356">IsHoliday : BIT</text></g><!--class DimGeography--><g id="elem_DimGeography"><rect codeLine="81" fill="url(#g1jkdz3iyukl40)" filter="url(#f1jkdz3iyukl4)" height="623.7231" id="DimGeography" rx="5" ry="5" style="stroke:#2196F3;stroke-width:1.25;" width="397.5" x="1156.25" y="96.875"/><rect fill="url(#g1jkdz3iyukl41)" height="66.2476" rx="5" ry="5" style="stroke:url(#g1jkdz3iyukl41);stroke-width:1.25;" width="397.5" x="1156.25" y="96.875"/><rect fill="url(#g1jkdz3iyukl41)" height="5" style="stroke:url(#g1jkdz3iyukl41);stroke-width:1.25;" width="397.5" x="1156.25" y="158.1226"/><rect codeLine="81" fill="none" height="623.7231" id="DimGeography" rx="5" ry="5" style="stroke:#2196F3;stroke-width:1.25;" width="397.5" x="1156.25" y="96.875"/><ellipse cx="1254.375" cy="129.9988" fill="none" rx="15" ry="15" style="stroke:#1A78C2;stroke-width:1.25;"/><path d="M1251.8164,131.3269 L1251.8164,134.9988 L1258.1836,134.9988 L1258.1836,133.6316 Q1258.1836,132.7332 1258.5352,132.3621 Q1258.8867,131.9714 1259.4531,131.9714 Q1260,131.9714 1260.3516,132.3621 Q1260.7031,132.7332 1260.7031,133.6316 L1260.7031,137.4988 L1248.9063,137.4988 Q1248.0078,137.4988 1247.6172,137.1472 Q1247.2461,136.7957 1247.2461,136.2488 Q1247.2461,135.6824 1247.6367,135.3503 Q1248.0273,134.9988 1248.9063,134.9988 L1249.2969,134.9988 L1249.2969,125.2136 L1248.9063,125.2136 Q1248.0078,125.2136 1247.6172,124.8621 Q1247.2461,124.5105 1247.2461,123.9441 Q1247.2461,123.3777 1247.6172,123.0457 Q1248.0078,122.6941 1248.9063,122.6941 L1260.1367,122.6941 L1260.1367,126.5027 Q1260.1367,127.4011 1259.7852,127.7917 Q1259.4531,128.1628 1258.9063,128.1628 Q1258.3398,128.1628 1257.9883,127.7917 Q1257.6367,127.4207 1257.6367,126.5027 L1257.6367,125.2136 L1251.8164,125.2136 L1251.8164,128.8269 L1254.0039,128.8269 Q1254.0039,127.8503 1254.1797,127.5574 Q1254.5703,126.9714 1255.2539,126.9714 Q1255.8203,126.9714 1256.1523,127.3621 Q1256.5039,127.7332 1256.5039,128.6316 L1256.5039,131.5222 Q1256.5039,132.3425 1256.3086,132.616 Q1255.918,133.1824 1255.2539,133.1824 Q1254.5703,133.1824 1254.1797,132.5964 Q1254.0039,132.3035 1254.0039,131.3269 L1251.8164,131.3269 Z " fill="#FFFFFF"/><text fill="#FFFFFF" font-family="Arial" font-size="25" lengthAdjust="spacing" textLength="165" x="1294.375" y="139.0747">DimGeography</text><line style="stroke:#2196F3;stroke-width:1.25;" x1="1157.5" x2="1552.5" y1="163.1226" y2="163.1226"/><ellipse cx="1170" cy="196.8713" fill="none" rx="3.75" ry="3.75" style="stroke:#1A78C2;stroke-width:1.25;"/><text fill="#FFFFFF" font-family="Arial" font-size="25" lengthAdjust="spacing" textLength="226.25" x="1195" y="204.0723">GeographyKey : INT</text><line style="stroke:#2196F3;stroke-width:1.25;" x1="1157.5" x2="1552.5" y1="226.8701" y2="226.8701"/><text fill="#FFFFFF" font-family="Arial" font-size="25" lengthAdjust="spacing" textLength="216.25" x="1176.25" y="267.8198">ZipCodePrefix : INT</text><text fill="#FFFFFF" font-family="Arial" font-size="25" lengthAdjust="spacing" textLength="241.25" x="1176.25" y="321.5674">City : VARCHAR(100)</text><text fill="#FFFFFF" font-family="Arial" font-size="25" lengthAdjust="spacing" textLength="230" x="1176.25" y="375.3149">State : VARCHAR(2)</text><text fill="#FFFFFF" font-family="Arial" font-size="25" lengthAdjust="spacing" textLength="190" x="1176.25" y="429.0625">Latitude : FLOAT</text><text fill="#FFFFFF" font-family="Arial" font-size="25" lengthAdjust="spacing" textLength="208.75" x="1176.25" y="482.8101">Longitude : FLOAT</text><text fill="#FFFFFF" font-family="Arial" font-size="25" lengthAdjust="spacing" textLength="261.25" x="1176.25" y="536.5576">Region : VARCHAR(50)</text><text fill="#FFFFFF" font-family="Arial" font-size="25" lengthAdjust="spacing" textLength="345" x="1176.25" y="590.3052">RowEffectiveDate : DATETIME</text><text fill="#FFFFFF" font-family="Arial" font-size="25" lengthAdjust="spacing" textLength="357.5" x="1176.25" y="644.0527">RowExpirationDate : DATETIME</text><text fill="#FFFFFF" font-family="Arial" font-size="25" lengthAdjust="spacing" textLength="190" x="1176.25" y="697.8003">CurrentFlag : BIT</text></g><!--class DimOrderStatus--><g id="elem_DimOrderStatus"><rect codeLine="95" fill="url(#g1jkdz3iyukl40)" filter="url(#f1jkdz3iyukl4)" height="462.4805" id="DimOrderStatus" rx="5" ry="5" style="stroke:#2196F3;stroke-width:1.25;" width="431.25" x="1805" y="132.5"/><rect fill="url(#g1jkdz3iyukl41)" height="66.2476" rx="5" ry="5" style="stroke:url(#g1jkdz3iyukl41);stroke-width:1.25;" width="431.25" x="1805" y="132.5"/><rect fill="url(#g1jkdz3iyukl41)" height="5" style="stroke:url(#g1jkdz3iyukl41);stroke-width:1.25;" width="431.25" x="1805" y="193.7476"/><rect codeLine="95" fill="none" height="462.4805" id="DimOrderStatus" rx="5" ry="5" style="stroke:#2196F3;stroke-width:1.25;" width="431.25" x="1805" y="132.5"/><ellipse cx="1913.75" cy="165.6238" fill="none" rx="15" ry="15" style="stroke:#1A78C2;stroke-width:1.25;"/><path d="M1911.1914,166.9519 L1911.1914,170.6238 L1917.5586,170.6238 L1917.5586,169.2566 Q1917.5586,168.3582 1917.9102,167.9871 Q1918.2617,167.5964 1918.8281,167.5964 Q1919.375,167.5964 1919.7266,167.9871 Q1920.0781,168.3582 1920.0781,169.2566 L1920.0781,173.1238 L1908.2813,173.1238 Q1907.3828,173.1238 1906.9922,172.7722 Q1906.6211,172.4207 1906.6211,171.8738 Q1906.6211,171.3074 1907.0117,170.9753 Q1907.4023,170.6238 1908.2813,170.6238 L1908.6719,170.6238 L1908.6719,160.8386 L1908.2813,160.8386 Q1907.3828,160.8386 1906.9922,160.4871 Q1906.6211,160.1355 1906.6211,159.5691 Q1906.6211,159.0027 1906.9922,158.6707 Q1907.3828,158.3191 1908.2813,158.3191 L1919.5117,158.3191 L1919.5117,162.1277 Q1919.5117,163.0261 1919.1602,163.4167 Q1918.8281,163.7878 1918.2813,163.7878 Q1917.7148,163.7878 1917.3633,163.4167 Q1917.0117,163.0457 1917.0117,162.1277 L1917.0117,160.8386 L1911.1914,160.8386 L1911.1914,164.4519 L1913.3789,164.4519 Q1913.3789,163.4753 1913.5547,163.1824 Q1913.9453,162.5964 1914.6289,162.5964 Q1915.1953,162.5964 1915.5273,162.9871 Q1915.8789,163.3582 1915.8789,164.2566 L1915.8789,167.1472 Q1915.8789,167.9675 1915.6836,168.241 Q1915.293,168.8074 1914.6289,168.8074 Q1913.9453,168.8074 1913.5547,168.2214 Q1913.3789,167.9285 1913.3789,166.9519 L1911.1914,166.9519 Z " fill="#FFFFFF"/><text fill="#FFFFFF" font-family="Arial" font-size="25" lengthAdjust="spacing" textLength="177.5" x="1953.75" y="174.6997">DimOrderStatus</text><line style="stroke:#2196F3;stroke-width:1.25;" x1="1806.25" x2="2235" y1="198.7476" y2="198.7476"/><ellipse cx="1818.75" cy="232.4963" fill="none" rx="3.75" ry="3.75" style="stroke:#1A78C2;stroke-width:1.25;"/><text fill="#FFFFFF" font-family="Arial" font-size="25" lengthAdjust="spacing" textLength="173.75" x="1843.75" y="239.6973">StatusKey : INT</text><line style="stroke:#2196F3;stroke-width:1.25;" x1="1806.25" x2="2235" y1="262.4951" y2="262.4951"/><text fill="#FFFFFF" font-family="Arial" font-size="25" lengthAdjust="spacing" textLength="280" x="1825" y="303.4448">StatusID : VARCHAR(50)</text><text fill="#FFFFFF" font-family="Arial" font-size="25" lengthAdjust="spacing" textLength="391.25" x="1825" y="357.1924">StatusDescription : VARCHAR(200)</text><text fill="#FFFFFF" font-family="Arial" font-size="25" lengthAdjust="spacing" textLength="186.25" x="1825" y="410.9399">IsApproved : BIT</text><text fill="#FFFFFF" font-family="Arial" font-size="25" lengthAdjust="spacing" textLength="183.75" x="1825" y="464.6875">IsDelivered : BIT</text><text fill="#FFFFFF" font-family="Arial" font-size="25" lengthAdjust="spacing" textLength="170" x="1825" y="518.4351">IsShipped : BIT</text><text fill="#FFFFFF" font-family="Arial" font-size="25" lengthAdjust="spacing" textLength="188.75" x="1825" y="572.1826">IsCancelled : BIT</text></g><!--class FactSales--><g id="elem_FactSales"><rect codeLine="118" fill="url(#g1jkdz3iyukl40)" filter="url(#f1jkdz3iyukl4)" height="1214.9463" id="FactSales" rx="5" ry="5" style="stroke:#2196F3;stroke-width:1.25;" width="513.75" x="2476.875" y="462.5"/><rect fill="url(#g1jkdz3iyukl41)" height="66.2476" rx="5" ry="5" style="stroke:url(#g1jkdz3iyukl41);stroke-width:1.25;" width="513.75" x="2476.875" y="462.5"/><rect fill="url(#g1jkdz3iyukl41)" height="5" style="stroke:url(#g1jkdz3iyukl41);stroke-width:1.25;" width="513.75" x="2476.875" y="523.7476"/><rect codeLine="118" fill="none" height="1214.9463" id="FactSales" rx="5" ry="5" style="stroke:#2196F3;stroke-width:1.25;" width="513.75" x="2476.875" y="462.5"/><ellipse cx="2660.625" cy="495.6238" fill="none" rx="15" ry="15" style="stroke:#1A78C2;stroke-width:1.25;"/><path d="M2658.0664,496.9519 L2658.0664,500.6238 L2664.4336,500.6238 L2664.4336,499.2566 Q2664.4336,498.3582 2664.7852,497.9871 Q2665.1367,497.5964 2665.7031,497.5964 Q2666.25,497.5964 2666.6016,497.9871 Q2666.9531,498.3582 2666.9531,499.2566 L2666.9531,503.1238 L2655.1563,503.1238 Q2654.2578,503.1238 2653.8672,502.7722 Q2653.4961,502.4207 2653.4961,501.8738 Q2653.4961,501.3074 2653.8867,500.9753 Q2654.2773,500.6238 2655.1563,500.6238 L2655.5469,500.6238 L2655.5469,490.8386 L2655.1563,490.8386 Q2654.2578,490.8386 2653.8672,490.4871 Q2653.4961,490.1355 2653.4961,489.5691 Q2653.4961,489.0027 2653.8672,488.6707 Q2654.2578,488.3191 2655.1563,488.3191 L2666.3867,488.3191 L2666.3867,492.1277 Q2666.3867,493.0261 2666.0352,493.4167 Q2665.7031,493.7878 2665.1563,493.7878 Q2664.5898,493.7878 2664.2383,493.4167 Q2663.8867,493.0457 2663.8867,492.1277 L2663.8867,490.8386 L2658.0664,490.8386 L2658.0664,494.4519 L2660.2539,494.4519 Q2660.2539,493.4753 2660.4297,493.1824 Q2660.8203,492.5964 2661.5039,492.5964 Q2662.0703,492.5964 2662.4023,492.9871 Q2662.7539,493.3582 2662.7539,494.2566 L2662.7539,497.1472 Q2662.7539,497.9675 2662.5586,498.241 Q2662.168,498.8074 2661.5039,498.8074 Q2660.8203,498.8074 2660.4297,498.2214 Q2660.2539,497.9285 2660.2539,496.9519 L2658.0664,496.9519 Z " fill="#FFFFFF"/><text fill="#FFFFFF" font-family="Arial" font-size="25" lengthAdjust="spacing" textLength="110" x="2700.625" y="504.6997">FactSales</text><line style="stroke:#2196F3;stroke-width:1.25;" x1="2478.125" x2="2989.375" y1="528.7476" y2="528.7476"/><ellipse cx="2490.625" cy="562.4963" fill="none" rx="3.75" ry="3.75" style="stroke:#1A78C2;stroke-width:1.25;"/><text fill="#FFFFFF" font-family="Arial" font-size="25" lengthAdjust="spacing" textLength="208.75" x="2515.625" y="569.6973">SalesKey : BIGINT</text><line style="stroke:#2196F3;stroke-width:1.25;" x1="2478.125" x2="2989.375" y1="592.4951" y2="592.4951"/><text fill="#FFFFFF" font-family="Arial" font-size="25" lengthAdjust="spacing" textLength="288.75" x="2496.875" y="633.4448">OrderID : VARCHAR(100)</text><text fill="#FFFFFF" font-family="Arial" font-size="25" lengthAdjust="spacing" textLength="200" x="2496.875" y="687.1924">OrderItemID : INT</text><text fill="#FFFFFF" font-family="Arial" font-size="25" lengthAdjust="spacing" textLength="210" x="2496.875" y="740.9399">CustomerKey : INT</text><text fill="#FFFFFF" font-family="Arial" font-size="25" lengthAdjust="spacing" textLength="188.75" x="2496.875" y="794.6875">ProductKey : INT</text><text fill="#FFFFFF" font-family="Arial" font-size="25" lengthAdjust="spacing" textLength="166.25" x="2496.875" y="848.4351">SellerKey : INT</text><text fill="#FFFFFF" font-family="Arial" font-size="25" lengthAdjust="spacing" textLength="156.25" x="2496.875" y="902.1826">DateKey : INT</text><text fill="#FFFFFF" font-family="Arial" font-size="25" lengthAdjust="spacing" textLength="173.75" x="2496.875" y="955.9302">StatusKey : INT</text><text fill="#FFFFFF" font-family="Arial" font-size="25" lengthAdjust="spacing" textLength="226.25" x="2496.875" y="1009.6777">GeographyKey : INT</text><text fill="#FFFFFF" font-family="Arial" font-size="25" lengthAdjust="spacing" textLength="436.25" x="2496.875" y="1063.4253">OrderPurchaseTimestamp : DATETIME</text><text fill="#FFFFFF" font-family="Arial" font-size="25" lengthAdjust="spacing" textLength="473.75" x="2496.875" y="1117.1729">OrderDeliveredCustomerDate : DATETIME</text><text fill="#FFFFFF" font-family="Arial" font-size="25" lengthAdjust="spacing" textLength="255" x="2496.875" y="1170.9204">Price : DECIMAL(10,2)</text><text fill="#FFFFFF" font-family="Arial" font-size="25" lengthAdjust="spacing" textLength="336.25" x="2496.875" y="1224.668">FreightValue : DECIMAL(10,2)</text><text fill="#FFFFFF" font-family="Arial" font-size="25" lengthAdjust="spacing" textLength="363.75" x="2496.875" y="1278.4155">TotalItemValue : DECIMAL(10,2)</text><text fill="#FFFFFF" font-family="Arial" font-size="25" lengthAdjust="spacing" textLength="210" x="2496.875" y="1332.1631">ShippingDays : INT</text><text fill="#FFFFFF" font-family="Arial" font-size="25" lengthAdjust="spacing" textLength="205" x="2496.875" y="1385.9106">DeliveryDays : INT</text><text fill="#FFFFFF" font-family="Arial" font-size="25" lengthAdjust="spacing" textLength="172.5" x="2496.875" y="1439.6582">TotalDays : INT</text><text fill="#FFFFFF" font-family="Arial" font-size="25" lengthAdjust="spacing" textLength="171.25" x="2496.875" y="1493.4058">IsDelayed : BIT</text><text fill="#FFFFFF" font-family="Arial" font-size="25" lengthAdjust="spacing" textLength="180" x="2496.875" y="1547.1533">DelayDays : INT</text><text fill="#FFFFFF" font-family="Arial" font-size="25" lengthAdjust="spacing" textLength="205" x="2496.875" y="1600.9009">IsCrossState : BIT</text><text fill="#FFFFFF" font-family="Arial" font-size="25" lengthAdjust="spacing" textLength="336.25" x="2496.875" y="1654.6484">PaymentType : VARCHAR(50)</text></g><!--class FactReviews--><g id="elem_FactReviews"><rect codeLine="143" fill="url(#g1jkdz3iyukl40)" filter="url(#f1jkdz3iyukl4)" height="623.7231" id="FactReviews" rx="5" ry="5" style="stroke:#2196F3;stroke-width:1.25;" width="555" x="2456.25" y="1778.125"/><rect fill="url(#g1jkdz3iyukl41)" height="66.2476" rx="5" ry="5" style="stroke:url(#g1jkdz3iyukl41);stroke-width:1.25;" width="555" x="2456.25" y="1778.125"/><rect fill="url(#g1jkdz3iyukl41)" height="5" style="stroke:url(#g1jkdz3iyukl41);stroke-width:1.25;" width="555" x="2456.25" y="1839.3726"/><rect codeLine="143" fill="none" height="623.7231" id="FactReviews" rx="5" ry="5" style="stroke:#2196F3;stroke-width:1.25;" width="555" x="2456.25" y="1778.125"/><ellipse cx="2645" cy="1811.2488" fill="none" rx="15" ry="15" style="stroke:#1A78C2;stroke-width:1.25;"/><path d="M2642.4414,1812.5769 L2642.4414,1816.2488 L2648.8086,1816.2488 L2648.8086,1814.8816 Q2648.8086,1813.9832 2649.1602,1813.6121 Q2649.5117,1813.2214 2650.0781,1813.2214 Q2650.625,1813.2214 2650.9766,1813.6121 Q2651.3281,1813.9832 2651.3281,1814.8816 L2651.3281,1818.7488 L2639.5313,1818.7488 Q2638.6328,1818.7488 2638.2422,1818.3972 Q2637.8711,1818.0457 2637.8711,1817.4988 Q2637.8711,1816.9324 2638.2617,1816.6003 Q2638.6523,1816.2488 2639.5313,1816.2488 L2639.9219,1816.2488 L2639.9219,1806.4636 L2639.5313,1806.4636 Q2638.6328,1806.4636 2638.2422,1806.1121 Q2637.8711,1805.7605 2637.8711,1805.1941 Q2637.8711,1804.6277 2638.2422,1804.2957 Q2638.6328,1803.9441 2639.5313,1803.9441 L2650.7617,1803.9441 L2650.7617,1807.7527 Q2650.7617,1808.6511 2650.4102,1809.0417 Q2650.0781,1809.4128 2649.5313,1809.4128 Q2648.9648,1809.4128 2648.6133,1809.0417 Q2648.2617,1808.6707 2648.2617,1807.7527 L2648.2617,1806.4636 L2642.4414,1806.4636 L2642.4414,1810.0769 L2644.6289,1810.0769 Q2644.6289,1809.1003 2644.8047,1808.8074 Q2645.1953,1808.2214 2645.8789,1808.2214 Q2646.4453,1808.2214 2646.7773,1808.6121 Q2647.1289,1808.9832 2647.1289,1809.8816 L2647.1289,1812.7722 Q2647.1289,1813.5925 2646.9336,1813.866 Q2646.543,1814.4324 2645.8789,1814.4324 Q2645.1953,1814.4324 2644.8047,1813.8464 Q2644.6289,1813.5535 2644.6289,1812.5769 L2642.4414,1812.5769 Z " fill="#FFFFFF"/><text fill="#FFFFFF" font-family="Arial" font-size="25" lengthAdjust="spacing" textLength="141.25" x="2685" y="1820.3247">FactReviews</text><line style="stroke:#2196F3;stroke-width:1.25;" x1="2457.5" x2="3010" y1="1844.3726" y2="1844.3726"/><ellipse cx="2470" cy="1878.1213" fill="none" rx="3.75" ry="3.75" style="stroke:#1A78C2;stroke-width:1.25;"/><text fill="#FFFFFF" font-family="Arial" font-size="25" lengthAdjust="spacing" textLength="227.5" x="2495" y="1885.3223">ReviewKey : BIGINT</text><line style="stroke:#2196F3;stroke-width:1.25;" x1="2457.5" x2="3010" y1="1908.1201" y2="1908.1201"/><text fill="#FFFFFF" font-family="Arial" font-size="25" lengthAdjust="spacing" textLength="288.75" x="2476.25" y="1949.0698">OrderID : VARCHAR(100)</text><text fill="#FFFFFF" font-family="Arial" font-size="25" lengthAdjust="spacing" textLength="303.75" x="2476.25" y="2002.8174">ReviewID : VARCHAR(100)</text><text fill="#FFFFFF" font-family="Arial" font-size="25" lengthAdjust="spacing" textLength="210" x="2476.25" y="2056.5649">CustomerKey : INT</text><text fill="#FFFFFF" font-family="Arial" font-size="25" lengthAdjust="spacing" textLength="156.25" x="2476.25" y="2110.3125">DateKey : INT</text><text fill="#FFFFFF" font-family="Arial" font-size="25" lengthAdjust="spacing" textLength="206.25" x="2476.25" y="2164.0601">ReviewScore : INT</text><text fill="#FFFFFF" font-family="Arial" font-size="25" lengthAdjust="spacing" textLength="515" x="2476.25" y="2217.8076">ReviewCommentMessage : NVARCHAR(4000)</text><text fill="#FFFFFF" font-family="Arial" font-size="25" lengthAdjust="spacing" textLength="372.5" x="2476.25" y="2271.5552">ReviewCreationDate : DATETIME</text><text fill="#FFFFFF" font-family="Arial" font-size="25" lengthAdjust="spacing" textLength="431.25" x="2476.25" y="2325.3027">ReviewAnswerTimestamp : DATETIME</text><text fill="#FFFFFF" font-family="Arial" font-size="25" lengthAdjust="spacing" textLength="307.5" x="2476.25" y="2379.0503">ReviewResponseDays : INT</text></g><!--link DimDate to DimProduct--><!--link DimSeller to DimCustomer--><!--link DimCustomer to DimGeography--><!--link DimGeography to DimOrderStatus--><!--link DimCustomer to FactSales--><g id="link_DimCustomer_FactSales"><path codeLine="162" d="M1025.643,652.3877 C1078.3055,709.4752 1122.2625,751.1125 1156.25,770 C1577.95,1004.35 2127.9998,1058.1824 2454.2748,1068.9574 " fill="none" id="DimCustomer-FactSales" style="stroke:#2196F3;stroke-width:3.75;"/><line style="stroke:#2196F3;stroke-width:3.75;" x1="1018.5776" x2="1025.9278" y1="652.1028" y2="645.3224"/><line style="stroke:#2196F3;stroke-width:3.75;" x1="1021.1203" x2="1028.4705" y1="654.8592" y2="648.0787"/><line style="stroke:#2196F3;stroke-width:3.75;" x1="1025.643" x2="1018.8625" y1="652.3877" y2="645.0375"/><line style="stroke:#2196F3;stroke-width:3.75;" x1="2466.7679" x2="2477.01" y1="1069.3699" y2="1062.2041"/><line style="stroke:#2196F3;stroke-width:3.75;" x1="2466.7679" x2="2476.515" y1="1069.3699" y2="1077.1959"/><line style="stroke:#2196F3;stroke-width:3.75;" x1="2466.7679" x2="2476.7625" y1="1069.3699" y2="1069.7"/><ellipse cx="2459.272" cy="1069.1224" fill="none" rx="5" ry="5" style="stroke:#2196F3;stroke-width:3.75;"/><text fill="#4285F4" font-family="Arial" font-size="25" lengthAdjust="spacing" textLength="148.75" x="1605" y="925.9497">CustomerKey</text></g><!--link DimProduct to FactSales--><g id="link_DimProduct_FactSales"><path codeLine="163" d="M1089.8612,1271.5131 C1102.3737,1275.5756 1105.275,1276.3625 1117.5,1280 C1324.0875,1341.475 1376.95,1360.5625 1591.25,1383.75 C1902.8,1417.4625 2227.5654,1308.7592 2455.8904,1207.9967 " fill="none" id="DimProduct-FactSales" style="stroke:#2196F3;stroke-width:3.75;"/><line style="stroke:#2196F3;stroke-width:3.75;" x1="1083.5616" x2="1086.6497" y1="1274.7247" y2="1265.2134"/><line style="stroke:#2196F3;stroke-width:3.75;" x1="1087.1283" x2="1090.2164" y1="1275.8827" y2="1266.3714"/><line style="stroke:#2196F3;stroke-width:3.75;" x1="1089.8612" x2="1080.35" y1="1271.5131" y2="1268.425"/><line style="stroke:#2196F3;stroke-width:3.75;" x1="2467.3263" x2="2473.4469" y1="1202.9499" y2="1192.051"/><line style="stroke:#2196F3;stroke-width:3.75;" x1="2467.3263" x2="2479.5031" y1="1202.9499" y2="1205.774"/><line style="stroke:#2196F3;stroke-width:3.75;" x1="2467.3263" x2="2476.475" y1="1202.9499" y2="1198.9125"/><ellipse cx="2460.4647" cy="1205.978" fill="none" rx="5" ry="5" style="stroke:#2196F3;stroke-width:3.75;"/><text fill="#4285F4" font-family="Arial" font-size="25" lengthAdjust="spacing" textLength="127.5" x="1615.625" y="1365.9497">ProductKey</text></g><!--link DimSeller to FactSales--><g id="link_DimSeller_FactSales"><path codeLine="164" d="M422.1375,622.6539 C429.5,638.8539 431.9625,646.125 437.5,662.5 C504.525,860.775 359.875,1459.375 513.75,1601.25 C750.175,1819.25 1862.775,1577.5375 2266.25,1410 C2339.3375,1379.65 2393.388,1348.6886 2458.538,1302.3636 " fill="none" id="DimSeller-FactSales" style="stroke:#2196F3;stroke-width:3.75;"/><line style="stroke:#2196F3;stroke-width:3.75;" x1="415.5168" x2="424.6207" y1="620.1707" y2="616.0332"/><line style="stroke:#2196F3;stroke-width:3.75;" x1="417.0684" x2="426.1723" y1="623.5847" y2="619.4472"/><line style="stroke:#2196F3;stroke-width:3.75;" x1="422.1375" x2="418" y1="622.6539" y2="613.55"/><line style="stroke:#2196F3;stroke-width:3.75;" x1="2468.7252" x2="2472.5288" y1="1295.1199" y2="1283.2127"/><line style="stroke:#2196F3;stroke-width:3.75;" x1="2468.7252" x2="2481.2212" y1="1295.1199" y2="1295.4373"/><line style="stroke:#2196F3;stroke-width:3.75;" x1="2468.7252" x2="2476.875" y1="1295.1199" y2="1289.325"/><ellipse cx="2462.6129" cy="1299.4661" fill="none" rx="5" ry="5" style="stroke:#2196F3;stroke-width:3.75;"/><text fill="#4285F4" font-family="Arial" font-size="25" lengthAdjust="spacing" textLength="105" x="1302.5" y="1593.4497">SellerKey</text></g><!--link DimDate to FactSales--><g id="link_DimDate_FactSales"><path codeLine="165" d="M389.6322,1668.3072 C415.1947,1711.7697 440.0375,1743.875 475,1778.75 C583.425,1886.9125 642.475,1905 795.625,1905 C795.625,1905 795.625,1905 2021.875,1905 C2214.3125,1905 2278.5875,1860.7125 2416.25,1726.25 C2437.625,1705.375 2443.77,1700.3923 2462.6825,1676.5423 " fill="none" id="DimDate-FactSales" style="stroke:#2196F3;stroke-width:3.75;"/><line style="stroke:#2196F3;stroke-width:3.75;" x1="382.7875" x2="391.4072" y1="1666.5322" y2="1661.4625"/><line style="stroke:#2196F3;stroke-width:3.75;" x1="384.6886" x2="393.3083" y1="1669.7645" y2="1664.6949"/><line style="stroke:#2196F3;stroke-width:3.75;" x1="389.6322" x2="384.5625" y1="1668.3072" y2="1659.6875"/><line style="stroke:#2196F3;stroke-width:3.75;" x1="2470.4492" x2="2470.7859" y1="1666.748" y2="1654.2525"/><line style="stroke:#2196F3;stroke-width:3.75;" x1="2470.4492" x2="2482.5391" y1="1666.748" y2="1663.5725"/><line style="stroke:#2196F3;stroke-width:3.75;" x1="2470.4492" x2="2476.6625" y1="1666.748" y2="1658.9125"/><ellipse cx="2465.7892" cy="1672.6246" fill="none" rx="5" ry="5" style="stroke:#2196F3;stroke-width:3.75;"/><text fill="#4285F4" font-family="Arial" font-size="25" lengthAdjust="spacing" textLength="95" x="1307.5" y="1887.1997">DateKey</text></g><!--link DimOrderStatus to FactSales--><g id="link_DimOrderStatus_FactSales"><path codeLine="166" d="M2244.5554,524.2437 C2305.0554,571.5062 2361.4,619.3 2416.25,673.75 C2436.55,693.9 2441.731,698.6164 2461.606,720.6539 " fill="none" id="DimOrderStatus-FactSales" style="stroke:#2196F3;stroke-width:3.75;"/><line style="stroke:#2196F3;stroke-width:3.75;" x1="2237.5371" x2="2243.6933" y1="525.1058" y2="517.2254"/><line style="stroke:#2196F3;stroke-width:3.75;" x1="2240.4923" x2="2246.6485" y1="527.4144" y2="519.5339"/><line style="stroke:#2196F3;stroke-width:3.75;" x1="2244.5554" x2="2236.675" y1="524.2437" y2="518.0875"/><line style="stroke:#2196F3;stroke-width:3.75;" x1="2469.9777" x2="2482.2445" y1="729.9365" y2="732.3395"/><line style="stroke:#2196F3;stroke-width:3.75;" x1="2469.9777" x2="2471.1055" y1="729.9365" y2="742.3855"/><line style="stroke:#2196F3;stroke-width:3.75;" x1="2469.9777" x2="2476.675" y1="729.9365" y2="737.3625"/><ellipse cx="2464.9547" cy="724.367" fill="none" rx="5" ry="5" style="stroke:#2196F3;stroke-width:3.75;"/><text fill="#4285F4" font-family="Arial" font-size="25" lengthAdjust="spacing" textLength="112.5" x="2290" y="537.1997">StatusKey</text></g><!--link DimGeography to FactSales--><g id="link_DimGeography_FactSales"><path codeLine="167" d="M1562.1715,556.1643 C1638.4215,607.2268 1719.4625,657.175 1805,700 C2063.85,829.6 2148.65,814.5875 2416.25,925 C2435.9375,933.125 2435.5623,932.7582 2455.8623,941.6082 " fill="none" id="DimGeography-FactSales" style="stroke:#2196F3;stroke-width:3.75;"/><line style="stroke:#2196F3;stroke-width:3.75;" x1="1555.2348" x2="1560.7991" y1="557.5366" y2="549.2277"/><line style="stroke:#2196F3;stroke-width:3.75;" x1="1558.3507" x2="1563.915" y1="559.6232" y2="551.3143"/><line style="stroke:#2196F3;stroke-width:3.75;" x1="1562.1715" x2="1553.8625" y1="556.1643" y2="550.6"/><line style="stroke:#2196F3;stroke-width:3.75;" x1="2467.3208" x2="2479.4848" y1="946.6037" y2="943.7249"/><line style="stroke:#2196F3;stroke-width:3.75;" x1="2467.3208" x2="2473.4902" y1="946.6037" y2="957.4751"/><line style="stroke:#2196F3;stroke-width:3.75;" x1="2467.3208" x2="2476.4875" y1="946.6037" y2="950.6"/><ellipse cx="2460.4457" cy="943.6064" fill="none" rx="5" ry="5" style="stroke:#2196F3;stroke-width:3.75;"/><text fill="#4285F4" font-family="Arial" font-size="25" lengthAdjust="spacing" textLength="165" x="1938.125" y="682.1997">GeographyKey</text></g><!--link DimCustomer to FactReviews--><g id="link_DimCustomer_FactReviews"><path codeLine="169" d="M1024.7296,629.6115 C1047.2171,660.249 1062.325,684.1125 1080,716.25 C1134.1875,814.7875 1085.75,869.9 1156.25,957.5 C1352.7,1201.5875 1509.0875,1131.5625 1767.5,1308.75 C2009.9375,1474.9875 2250.8298,1671.2108 2438.9923,1831.9483 " fill="none" id="DimCustomer-FactReviews" style="stroke:#2196F3;stroke-width:3.75;"/><line style="stroke:#2196F3;stroke-width:3.75;" x1="1017.7403" x2="1025.8018" y1="628.5393" y2="622.6222"/><line style="stroke:#2196F3;stroke-width:3.75;" x1="1019.9592" x2="1028.0207" y1="631.5624" y2="625.6453"/><line style="stroke:#2196F3;stroke-width:3.75;" x1="1024.7296" x2="1018.8125" y1="629.6115" y2="621.55"/><line style="stroke:#2196F3;stroke-width:3.75;" x1="2448.4966" x2="2460.9714" y1="1840.0673" y2="1840.8599"/><line style="stroke:#2196F3;stroke-width:3.75;" x1="2448.4966" x2="2451.2286" y1="1840.0673" y2="1852.2651"/><line style="stroke:#2196F3;stroke-width:3.75;" x1="2448.4966" x2="2456.1" y1="1840.0673" y2="1846.5625"/><ellipse cx="2442.794" cy="1835.1959" fill="none" rx="5" ry="5" style="stroke:#2196F3;stroke-width:3.75;"/><text fill="#4285F4" font-family="Arial" font-size="25" lengthAdjust="spacing" textLength="148.75" x="1605" y="1197.1997">CustomerKey</text></g><!--link DimDate to FactReviews--><g id="link_DimDate_FactReviews"><path codeLine="170" d="M329.6833,1669.1389 C405.3833,1917.0139 541.8625,2160 795.625,2160 C795.625,2160 795.625,2160 2021.875,2160 C2165.525,2160 2302.3843,2148.3351 2433.6218,2132.6351 " fill="none" id="DimDate-FactReviews" style="stroke:#2196F3;stroke-width:3.75;"/><line style="stroke:#2196F3;stroke-width:3.75;" x1="323.4409" x2="333.0049" y1="1665.8174" y2="1662.8966"/><line style="stroke:#2196F3;stroke-width:3.75;" x1="324.5362" x2="334.1002" y1="1669.4038" y2="1666.4831"/><line style="stroke:#2196F3;stroke-width:3.75;" x1="329.6833" x2="326.7625" y1="1669.1389" y2="1659.575"/><line style="stroke:#2196F3;stroke-width:3.75;" x1="2446.0333" x2="2455.0716" y1="2131.1503" y2="2122.5156"/><line style="stroke:#2196F3;stroke-width:3.75;" x1="2446.0333" x2="2456.8534" y1="2131.1503" y2="2137.4094"/><line style="stroke:#2196F3;stroke-width:3.75;" x1="2446.0333" x2="2455.9625" y1="2131.1503" y2="2129.9625"/><ellipse cx="2438.5864" cy="2132.0412" fill="none" rx="5" ry="5" style="stroke:#2196F3;stroke-width:3.75;"/><text fill="#4285F4" font-family="Arial" font-size="25" lengthAdjust="spacing" textLength="95" x="1307.5" y="2142.1997">DateKey</text></g><!--SRC=[nLXjRzis4FxkNy6b7xeEy-PaoL04NG17ZXDZUPlj9TY6VM2aiqH44bMIYgE-_FSTIKccP2drzg5hW1Qyv-vqF3xtqdoZ8aY095I1O7GGmqeHnObWOQH8m0JuYl5qC7XDpcF-G6EougaYadq08a4fbePo81zPcb514nB0YkQncgBEGgiSZBh1QuhV7EC7O-tPowNY2P6gY07z2v9H_v66u7ekHUJZW13jmUCnAguZfW0bfuY6WkTfOEMlziVwHoDS121AwT58_mm-wu_-yl8Vr9Ym15A9joTB-X1ZD5ysggBSQzlkcS0XLKmL1hLt1h57g2JEsUWHyXsf1Bz2GOx9x7ffvCEX-QS2PnF4xiPpxs8y_tP_D7hJG7zFsViSNjRvasKU3-1Mm8ezEn-gS4y7_8BzGY5p78K32y_v-corqkHvWedLc8oNPylPrLcDFsTCKCskBWKl5mBJDOrfYD3fJ4U5xzR8uQtWGUwhAeNbiSvWUUvCO8brvwO4FGmhvA8mPDrDxImDOoQZ5xJlGLVMEMfCBs_6InUwX3HKaPTqOHV6h1kxPq6VsHsFymIyvAS6g4kpYjfzkj5NVBi5nF66_VPKlvmzTZwSXRhVpM9zZBPe7vyj-d-oMTjL-J0-gcpeGsSkDD3An9iQA4Cmvp-02iVy2ljdv9mdr7N-Mqu53WD7SW_mUBDgEK6ZcvL67DbCQW6aGNt9ycDR9LJ5MVGWKoPz6hS-QONRyLtmc0NKVTQZqirCRh3kh9y33mNDeg9AVIseyrzBEX-Xju7s4QsROfV87PK7q2ZKIvw6sz8vX7gmRD_sgz3qHizJVObSLYbpH9iIDiVk4ZPGWxX7Jd9oEG7f2vQfvYqFHlMZZhDCy2TmQJP3gnZlBLhIHSIoh2NpQEhhSW-QbtoDYuNmWKHSi0_8Mbnsg10q3N51mfrdpR1e8XO4a9AOfOyIJQfI7VvbWR-79yuaGWMhKxQtbbOrGgrElG2qj6hsMRKDFLjwpYFikk1CAKxBVx_RE6RDjKO32sh4I8pwjE64FbbAdCxEMwmmyNVtTGifI0pStb2Q7EiS-btpPBkhTb6sf_PDHBUvy2CgOOcxdbGqoThbPBHgMbRnTXNUhM2-4Pvviwln9Lxz-x8lJ8MP_7SqphiLbXo9gfFJhs9g03TrRBVIpO2Dh6Y9ZSEMp5GNBHfrP2HRUfxWKbOzhbAzfOKkeMMHmLRHD_gBvimSdXYiDnmgppMBxFa_qCWQlhmEVuaZriV2vmAsf1vFz2slG4fT9yVaklhCuQWPWoUWjmTRZN4gro1wcMMLvY0pdafeFCBdNQj_Zk-dWv383hcJnJYEYN2iI4mV89Q4fUG1kJTmkzYdJyCX_-WqWMEozyxN_mqxVdLuyFPeUdZYvFpTZmOwsHiuU_mkFZRbtd1HDjoTNDJDeU71F0tPpKD9auQzEnDt2QBgFGqdcsQ_KnnkizhuwNkMggvsVvYkdFHxsSgAPb0GCCqU7AqIvmds9F80QWquKaqBO7WlnKacu4cFN5_mTO1AQ6cchue0EIT2l8Y2PzNuzK2W5Sc- -mk75FSo2Hbvwmfne3zguSyZ7T05m-NAkCM9hl_202JNae84F7sj2CNr0RTGvBXMMp4TUy0e9ZePHDfQMsfN2znDhQyGKi0b2xibIx0J3AH1zdyu6Fm3]--></g></svg>